<svg width="124" height="44" viewBox="0 0 124 44" fill="none" xmlns="http://www.w3.org/2000/svg">
<path d="M48.544 19V1.48H51.664L56.848 13.168H57.232L62.392 1.48H65.536V19H63.184V4.048L63.352 4.096L58.384 15.376H55.504L50.512 4.096L50.704 4.048V19H48.544ZM70.9101 19V6.184H73.2141V19H70.9101ZM68.9421 8.008V6.184H73.2141V8.008H68.9421ZM71.5581 4.12C71.0461 4.12 70.6621 3.984 70.4061 3.712C70.1661 3.44 70.0461 3.096 70.0461 2.68C70.0461 2.264 70.1661 1.92 70.4061 1.648C70.6621 1.376 71.0461 1.24 71.5581 1.24C72.0701 1.24 72.4461 1.376 72.6861 1.648C72.9421 1.92 73.0701 2.264 73.0701 2.68C73.0701 3.096 72.9421 3.44 72.6861 3.712C72.4461 3.984 72.0701 4.12 71.5581 4.12ZM77.8129 19V1.48H80.1169V19H77.8129ZM76.0369 3.304V1.48H80.1169V3.304H76.0369ZM90.4401 19.432C89.3201 19.432 88.3361 19.24 87.4881 18.856C86.6401 18.472 85.9201 17.968 85.3281 17.344C84.7521 16.704 84.3121 15.992 84.0081 15.208C83.7201 14.424 83.5761 13.624 83.5761 12.808V12.376C83.5761 11.56 83.7281 10.76 84.0321 9.976C84.3361 9.176 84.7841 8.464 85.3761 7.84C85.9681 7.2 86.6881 6.696 87.5361 6.328C88.3841 5.944 89.3521 5.752 90.4401 5.752C91.5281 5.752 92.4961 5.944 93.3441 6.328C94.1921 6.696 94.9121 7.2 95.5041 7.84C96.0961 8.464 96.5441 9.176 96.8481 9.976C97.1521 10.76 97.3041 11.56 97.3041 12.376V12.808C97.3041 13.624 97.1521 14.424 96.8481 15.208C96.5601 15.992 96.1201 16.704 95.5281 17.344C94.9521 17.968 94.2401 18.472 93.3921 18.856C92.5441 19.24 91.5601 19.432 90.4401 19.432ZM90.4401 17.368C91.4001 17.368 92.2161 17.16 92.8881 16.744C93.5761 16.312 94.0961 15.736 94.4481 15.016C94.8161 14.296 95.0001 13.488 95.0001 12.592C95.0001 11.68 94.8161 10.864 94.4481 10.144C94.0801 9.424 93.5521 8.856 92.8641 8.44C92.1921 8.024 91.3841 7.816 90.4401 7.816C89.5121 7.816 88.7041 8.024 88.0161 8.44C87.3281 8.856 86.8001 9.424 86.4321 10.144C86.0641 10.864 85.8801 11.68 85.8801 12.592C85.8801 13.488 86.0561 14.296 86.4081 15.016C86.7761 15.736 87.2961 16.312 87.9681 16.744C88.6561 17.16 89.4801 17.368 90.4401 17.368ZM50.416 41.096V39.032H55.312C56.256 39.032 56.984 38.768 57.496 38.24C58.024 37.696 58.288 36.976 58.288 36.08C58.288 35.168 58.032 34.456 57.52 33.944C57.008 33.416 56.272 33.152 55.312 33.152H50.416V31.616H54.976C56.096 31.616 57.08 31.752 57.928 32.024C58.792 32.296 59.464 32.752 59.944 33.392C60.44 34.016 60.688 34.872 60.688 35.96V36.296C60.688 37.32 60.48 38.192 60.064 38.912C59.648 39.616 59.016 40.16 58.168 40.544C57.32 40.912 56.256 41.096 54.976 41.096H50.416ZM48.544 41.096V23.384H50.896V41.096H48.544ZM50.416 32.72V31.184H54.664C55.656 31.184 56.384 30.92 56.848 30.392C57.328 29.848 57.568 29.16 57.568 28.328C57.568 27.48 57.328 26.792 56.848 26.264C56.384 25.72 55.656 25.448 54.664 25.448H50.416V23.384H54.256C56.176 23.384 57.608 23.792 58.552 24.608C59.496 25.408 59.968 26.568 59.968 28.088V28.424C59.968 29.496 59.728 30.352 59.248 30.992C58.768 31.616 58.096 32.064 57.232 32.336C56.384 32.592 55.392 32.72 54.256 32.72H50.416ZM69.8748 41.432C68.7548 41.432 67.7868 41.24 66.9708 40.856C66.1548 40.472 65.4908 39.968 64.9788 39.344C64.4668 38.704 64.0828 37.992 63.8268 37.208C63.5868 36.424 63.4668 35.624 63.4668 34.808V34.376C63.4668 33.544 63.5868 32.736 63.8268 31.952C64.0828 31.168 64.4668 30.464 64.9788 29.84C65.4908 29.2 66.1388 28.696 66.9228 28.328C67.7228 27.944 68.6588 27.752 69.7308 27.752C71.1228 27.752 72.2668 28.056 73.1628 28.664C74.0748 29.256 74.7468 30.024 75.1788 30.968C75.6268 31.912 75.8508 32.92 75.8508 33.992V35.024H64.4748V33.296H74.1708L73.6428 34.232C73.6428 33.32 73.4988 32.536 73.2108 31.88C72.9228 31.208 72.4908 30.688 71.9148 30.32C71.3388 29.952 70.6108 29.768 69.7308 29.768C68.8188 29.768 68.0588 29.976 67.4508 30.392C66.8588 30.808 66.4108 31.376 66.1068 32.096C65.8188 32.816 65.6748 33.648 65.6748 34.592C65.6748 35.504 65.8188 36.328 66.1068 37.064C66.4108 37.784 66.8748 38.36 67.4988 38.792C68.1228 39.208 68.9148 39.416 69.8748 39.416C70.8828 39.416 71.6988 39.192 72.3228 38.744C72.9628 38.296 73.3468 37.776 73.4748 37.184H75.6348C75.4588 38.064 75.1068 38.824 74.5788 39.464C74.0508 40.104 73.3868 40.592 72.5868 40.928C71.7868 41.264 70.8828 41.432 69.8748 41.432ZM84.4741 41.432C83.5621 41.432 82.7221 41.264 81.9541 40.928C81.1861 40.592 80.5141 40.12 79.9381 39.512C79.3781 38.904 78.9381 38.2 78.6181 37.4C78.3141 36.6 78.1621 35.736 78.1621 34.808V34.376C78.1621 33.464 78.3141 32.608 78.6181 31.808C78.9221 31.008 79.3461 30.304 79.8901 29.696C80.4501 29.088 81.1061 28.616 81.8581 28.28C82.6261 27.928 83.4741 27.752 84.4021 27.752C85.3781 27.752 86.2661 27.96 87.0661 28.376C87.8661 28.776 88.5221 29.408 89.0341 30.272C89.5461 31.136 89.8341 32.256 89.8981 33.632L88.9381 32.096V23.48H91.2421V41H89.4181V35.312H90.0901C90.0261 36.768 89.7221 37.952 89.1781 38.864C88.6341 39.76 87.9461 40.416 87.1141 40.832C86.2981 41.232 85.4181 41.432 84.4741 41.432ZM84.7861 39.416C85.5701 39.416 86.2821 39.24 86.9221 38.888C87.5621 38.536 88.0741 38.032 88.4581 37.376C88.8421 36.704 89.0341 35.92 89.0341 35.024V33.92C89.0341 33.04 88.8341 32.296 88.4341 31.688C88.0501 31.064 87.5301 30.592 86.8741 30.272C86.2341 29.936 85.5301 29.768 84.7621 29.768C83.9141 29.768 83.1621 29.968 82.5061 30.368C81.8661 30.768 81.3621 31.328 80.9941 32.048C80.6421 32.768 80.4661 33.616 80.4661 34.592C80.4661 35.568 80.6501 36.424 81.0181 37.16C81.3861 37.88 81.8981 38.44 82.5541 38.84C83.2101 39.224 83.9541 39.416 84.7861 39.416ZM96.2929 41V28.184H98.5969V41H96.2929ZM94.3249 30.008V28.184H98.5969V30.008H94.3249ZM96.9409 26.12C96.4289 26.12 96.0449 25.984 95.7889 25.712C95.5489 25.44 95.4289 25.096 95.4289 24.68C95.4289 24.264 95.5489 23.92 95.7889 23.648C96.0449 23.376 96.4289 23.24 96.9409 23.24C97.4529 23.24 97.8289 23.376 98.0689 23.648C98.3249 23.92 98.4529 24.264 98.4529 24.68C98.4529 25.096 98.3249 25.44 98.0689 25.712C97.8289 25.984 97.4529 26.12 96.9409 26.12ZM103.052 41V28.184H104.876V33.68H104.588C104.588 32.416 104.756 31.352 105.092 30.488C105.444 29.608 105.972 28.944 106.676 28.496C107.38 28.032 108.268 27.8 109.34 27.8H109.436C111.052 27.8 112.244 28.304 113.012 29.312C113.796 30.32 114.188 31.776 114.188 33.68V41H111.884V33.2C111.884 32.208 111.604 31.416 111.044 30.824C110.484 30.216 109.716 29.912 108.74 29.912C107.732 29.912 106.916 30.224 106.292 30.848C105.668 31.472 105.356 32.304 105.356 33.344V41H103.052ZM119.027 41V28.184H121.331V41H119.027ZM117.059 30.008V28.184H121.331V30.008H117.059ZM119.675 26.12C119.163 26.12 118.779 25.984 118.523 25.712C118.283 25.44 118.163 25.096 118.163 24.68C118.163 24.264 118.283 23.92 118.523 23.648C118.779 23.376 119.163 23.24 119.675 23.24C120.187 23.24 120.563 23.376 120.803 23.648C121.059 23.92 121.187 24.264 121.187 24.68C121.187 25.096 121.059 25.44 120.803 25.712C120.563 25.984 120.187 26.12 119.675 26.12Z" fill="white"/>
<path d="M8 37C8 39.2091 6.20914 41 4 41C1.79086 41 0 39.2091 0 37C0 34.7909 1.79086 33 4 33C6.20914 33 8 34.7909 8 37Z" fill="#FD4934"/>
<path d="M12 7C12 9.20914 10.2091 11 8 11C5.79086 11 4 9.20914 4 7C4 4.79086 5.79086 3 8 3C10.2091 3 12 4.79086 12 7Z" fill="#FD4934"/>
<path d="M28 26C28 28.2091 26.2091 30 24 30C21.7909 30 20 28.2091 20 26C20 23.7909 21.7909 22 24 22C26.2091 22 28 23.7909 28 26Z" fill="#FD4934"/>
<path d="M41 6C41 8.20914 39.2091 10 37 10C34.7909 10 33 8.20914 33 6C33 3.79086 34.7909 2 37 2C39.2091 2 41 3.79086 41 6Z" fill="#FD4934"/>
<path d="M42 36C42 38.2091 40.2091 40 38 40C35.7909 40 34 38.2091 34 36C34 33.7909 35.7909 32 38 32C40.2091 32 42 33.7909 42 36Z" fill="#FD4934"/>
<path fill-rule="evenodd" clip-rule="evenodd" d="M8.00003 6.99962L4.00003 39.9996L3.50366 39.9395L7.50366 6.93945L8.00003 6.99962Z" fill="#FD4934"/>
<path fill-rule="evenodd" clip-rule="evenodd" d="M24 25.9998L7.99999 6.9998L8.38245 6.67773L24.3824 25.6777L24 25.9998Z" fill="#FD4934"/>
<path fill-rule="evenodd" clip-rule="evenodd" d="M23 25.9996L4.00001 36.9996L3.87476 36.7832L22.8748 25.7832L23 25.9996Z" fill="#FD4934" fill-opacity="0.5"/>
<path fill-rule="evenodd" clip-rule="evenodd" d="M37 6.00057L4.00003 37.0006L3.82886 36.8184L36.8289 5.81836L37 6.00057Z" fill="#FD4934" fill-opacity="0.25"/>
<path fill-rule="evenodd" clip-rule="evenodd" d="M24 26.0007L38 37.0007L37.8456 37.1973L23.8456 26.1973L24 26.0007Z" fill="#FD4934" fill-opacity="0.5"/>
<path fill-rule="evenodd" clip-rule="evenodd" d="M37 5.99906L24 25.9991L23.5808 25.7266L36.5808 5.72656L37 5.99906Z" fill="#FD4934"/>
<path fill-rule="evenodd" clip-rule="evenodd" d="M38 37.0005L37 6.0005L37.4998 5.98438L38.4998 36.9844L38 37.0005Z" fill="#FD4934"/>
</svg>
