        <svg xmlns="http://www.w3.org/2000/svg" xmlns:xlink="http://www.w3.org/1999/xlink" version="1.1" width="3162.0810405202596" height="733.8760280190277" viewBox="0 -8.104052026013006 3162.0810405202596 733.8760280190277">
			
			<g transform="scale(8.104052026013006) translate(10, 10)">
				<defs id="SvgjsDefs1384"/><g id="SvgjsG1385" featureKey="symbolFeature-0" transform="matrix(0.8513281894072201,0,0,0.8513281894072201,-10.158898952945307,-11.158899764835136)" fill="#fff"><g xmlns="http://www.w3.org/2000/svg"><path d="M18.964,30.683c0.188,0,0.365,0.073,0.498,0.206c0.19,0.19,0.254,0.467,0.167,0.724l-0.111,0.329   l-0.329,0.111c-0.074,0.025-0.15,0.037-0.229,0.037c-0.188,0-0.364-0.073-0.496-0.205c-0.275-0.275-0.275-0.722,0-0.997   C18.599,30.757,18.776,30.683,18.964,30.683 M55.405,63.872l0.311,0.154c0.243,0.121,0.394,0.362,0.394,0.631   c0,0.389-0.316,0.705-0.705,0.705c-0.389,0-0.705-0.316-0.705-0.705c0-0.268,0.151-0.51,0.394-0.631L55.405,63.872 M18.964,29.583   c-0.462,0-0.924,0.176-1.276,0.529c-0.705,0.705-0.705,1.848,0,2.552c0.352,0.352,0.812,0.527,1.273,0.527   c0.196,0,0.392-0.032,0.579-0.095l11.666,11.666h17.1l6.298,6.298v11.981c-0.595,0.295-1.005,0.907-1.005,1.616   c0,0.997,0.808,1.805,1.805,1.805c0.997,0,1.805-0.808,1.805-1.805c0-0.709-0.41-1.321-1.005-1.616V50.397l-7.235-7.235h-17.1   L20.672,31.965c0.212-0.629,0.069-1.352-0.432-1.853C19.888,29.76,19.426,29.583,18.964,29.583L18.964,29.583z"/><path d="M35.138,15.362c0.389,0,0.705,0.316,0.705,0.705c0,0.268-0.151,0.51-0.394,0.63l-0.311,0.154l-0.311-0.154   c-0.243-0.121-0.394-0.362-0.394-0.63C34.433,15.678,34.75,15.362,35.138,15.362 M60.538,69.472l0.311,0.154   c0.243,0.121,0.394,0.362,0.394,0.63c0,0.389-0.316,0.705-0.705,0.705c-0.389,0-0.705-0.316-0.705-0.705   c0-0.268,0.151-0.51,0.394-0.63L60.538,69.472 M35.138,14.262c-0.997,0-1.805,0.808-1.805,1.805c0,0.709,0.41,1.321,1.005,1.616   v14.92l6.077,5.86h10.592l8.731,8.731v21.448c-0.595,0.295-1.005,0.907-1.005,1.616c0,0.997,0.808,1.805,1.805,1.805   s1.805-0.808,1.805-1.805c0-0.709-0.41-1.321-1.005-1.616V46.531l-9.669-9.669H41.061l-5.123-4.94v-14.24   c0.595-0.295,1.005-0.907,1.005-1.616C36.943,15.07,36.135,14.262,35.138,14.262L35.138,14.262z"/><path d="M80.862,31.033c0.188,0,0.365,0.073,0.498,0.206s0.206,0.31,0.206,0.498s-0.073,0.365-0.206,0.498   c-0.132,0.132-0.308,0.205-0.496,0.205c-0.078,0-0.155-0.013-0.229-0.037l-0.329-0.111l-0.111-0.329   c-0.086-0.257-0.022-0.534,0.167-0.724C80.497,31.107,80.674,31.033,80.862,31.033 M65.671,74.672l0.311,0.154   c0.243,0.121,0.394,0.362,0.394,0.63c0,0.389-0.316,0.705-0.705,0.705s-0.705-0.316-0.705-0.705c0-0.268,0.151-0.51,0.394-0.631   L65.671,74.672 M80.862,29.933c-0.462,0-0.924,0.176-1.276,0.529c-0.501,0.501-0.644,1.224-0.432,1.853l-8.516,8.516v10.8   l-5.767,5.767v16.444c-0.595,0.295-1.005,0.907-1.005,1.616c0,0.997,0.808,1.805,1.805,1.805c0.997,0,1.805-0.808,1.805-1.805   c0-0.709-0.41-1.321-1.005-1.616V58.06l5.767-5.767v-10.8l8.047-8.047c0.188,0.063,0.384,0.095,0.579,0.095   c0.461,0,0.922-0.175,1.273-0.527c0.705-0.705,0.705-1.848,0-2.552C81.786,30.11,81.324,29.933,80.862,29.933L80.862,29.933z"/><path d="M24.014,23.2c0.188,0,0.365,0.073,0.498,0.206c0.19,0.19,0.254,0.467,0.167,0.724l-0.111,0.329L24.24,24.57   c-0.074,0.025-0.15,0.037-0.228,0.037c-0.188,0-0.364-0.073-0.496-0.205c-0.133-0.133-0.206-0.31-0.206-0.498   c0-0.188,0.073-0.365,0.206-0.498S23.826,23.2,24.014,23.2 M34.065,37.483c0.188,0,0.364,0.073,0.496,0.205   c0.133,0.133,0.206,0.31,0.206,0.498s-0.073,0.365-0.206,0.498s-0.31,0.206-0.498,0.206c-0.188,0-0.365-0.073-0.498-0.206   c-0.19-0.19-0.254-0.467-0.167-0.724l0.111-0.329l0.329-0.111C33.91,37.495,33.987,37.483,34.065,37.483 M24.014,22.1   c-0.462,0-0.924,0.176-1.276,0.529c-0.705,0.705-0.705,1.848,0,2.552c0.352,0.352,0.812,0.527,1.273,0.527   c0.196,0,0.392-0.032,0.579-0.095l2.747,2.747v4.233l5.016,5.016c-0.212,0.629-0.069,1.352,0.432,1.853   c0.352,0.352,0.814,0.529,1.276,0.529c0.462,0,0.924-0.176,1.276-0.529c0.705-0.705,0.705-1.848,0-2.552   c-0.352-0.352-0.812-0.527-1.273-0.527c-0.196,0-0.392,0.032-0.579,0.095l-4.547-4.547v-4.233l-3.216-3.216   c0.212-0.629,0.069-1.352-0.432-1.853C24.938,22.276,24.476,22.1,24.014,22.1L24.014,22.1z"/><path d="M13.738,45.962c0.389,0,0.705,0.316,0.705,0.705c0,0.268-0.151,0.51-0.394,0.63l-0.311,0.154l-0.311-0.154   c-0.243-0.12-0.394-0.362-0.394-0.63C13.033,46.278,13.35,45.962,13.738,45.962 M19.665,59.083c0.188,0,0.364,0.073,0.496,0.205   c0.133,0.133,0.206,0.31,0.206,0.498c0,0.188-0.073,0.365-0.206,0.498s-0.31,0.206-0.498,0.206c-0.188,0-0.365-0.073-0.498-0.206   c-0.19-0.19-0.254-0.467-0.167-0.724l0.111-0.329l0.329-0.111C19.51,59.095,19.587,59.083,19.665,59.083 M13.738,44.862   c-0.997,0-1.805,0.808-1.805,1.805c0,0.709,0.41,1.321,1.005,1.616v5.911l5.016,5.016c-0.212,0.629-0.069,1.352,0.432,1.853   c0.352,0.352,0.814,0.529,1.276,0.529c0.462,0,0.924-0.176,1.276-0.529c0.705-0.705,0.705-1.848,0-2.552   c-0.352-0.352-0.812-0.527-1.273-0.527c-0.196,0-0.392,0.032-0.579,0.095l-4.547-4.547v-5.248c0.595-0.295,1.005-0.907,1.005-1.616   C15.543,45.67,14.735,44.862,13.738,44.862L13.738,44.862z"/><path d="M69.538,18.962c0.389,0,0.705,0.316,0.705,0.705c0,0.268-0.151,0.51-0.394,0.63l-0.311,0.154l-0.311-0.154   c-0.243-0.12-0.394-0.362-0.394-0.63C68.833,19.278,69.15,18.962,69.538,18.962 M65.938,47.672l0.311,0.154   c0.243,0.12,0.394,0.362,0.394,0.63c0,0.389-0.316,0.705-0.705,0.705c-0.389,0-0.705-0.316-0.705-0.705   c0-0.268,0.151-0.51,0.394-0.63L65.938,47.672 M69.538,17.862c-0.997,0-1.805,0.808-1.805,1.805c0,0.709,0.41,1.321,1.005,1.616   v7.048l-3.6,3.6v14.911c-0.595,0.295-1.005,0.907-1.005,1.616c0,0.997,0.808,1.805,1.805,1.805s1.805-0.808,1.805-1.805   c0-0.709-0.41-1.321-1.005-1.616V32.593l3.6-3.6v-7.711c0.595-0.295,1.005-0.907,1.005-1.616   C71.343,18.67,70.535,17.862,69.538,17.862L69.538,17.862z"/><path d="M76.738,24.362c0.389,0,0.705,0.316,0.705,0.705c0,0.268-0.151,0.51-0.394,0.63l-0.311,0.154l-0.311-0.154   c-0.243-0.121-0.394-0.362-0.394-0.63C76.033,24.678,76.35,24.362,76.738,24.362 M72.612,32.083c0.078,0,0.155,0.013,0.229,0.037   l0.329,0.111l0.111,0.329c0.086,0.257,0.022,0.534-0.167,0.724c-0.133,0.133-0.31,0.206-0.498,0.206   c-0.188,0-0.365-0.073-0.498-0.206c-0.275-0.275-0.275-0.722,0-0.997C72.248,32.155,72.424,32.083,72.612,32.083 M76.738,23.262   c-0.997,0-1.805,0.808-1.805,1.805c0,0.709,0.41,1.321,1.005,1.616v1.648l-2.747,2.747c-0.188-0.063-0.384-0.095-0.579-0.095   c-0.461,0-0.922,0.175-1.273,0.527c-0.705,0.705-0.705,1.848,0,2.552c0.352,0.352,0.814,0.529,1.276,0.529   c0.462,0,0.924-0.176,1.276-0.529c0.501-0.501,0.644-1.224,0.432-1.853l3.216-3.216v-2.311c0.595-0.295,1.005-0.907,1.005-1.616   C78.543,24.07,77.735,23.262,76.738,23.262L76.738,23.262z"/><path d="M62.338,15.362c0.389,0,0.705,0.316,0.705,0.705c0,0.268-0.151,0.51-0.394,0.63l-0.311,0.154l-0.311-0.154   c-0.243-0.121-0.394-0.362-0.394-0.63C61.633,15.678,61.95,15.362,62.338,15.362 M44.343,29.757c0.268,0,0.51,0.151,0.63,0.394   l0.154,0.311l-0.154,0.311c-0.121,0.243-0.362,0.394-0.63,0.394c-0.389,0-0.705-0.316-0.705-0.705S43.954,29.757,44.343,29.757    M62.338,14.262c-0.997,0-1.805,0.808-1.805,1.805c0,0.709,0.41,1.321,1.005,1.616v3.448l-8.531,8.531h-7.048   c-0.295-0.595-0.907-1.005-1.616-1.005c-0.997,0-1.805,0.808-1.805,1.805s0.808,1.805,1.805,1.805c0.709,0,1.321-0.41,1.616-1.005   h7.711l9.469-9.469v-4.111c0.595-0.295,1.005-0.907,1.005-1.616C64.143,15.07,63.335,14.262,62.338,14.262L62.338,14.262z"/><path d="M51.014,13.033c0.188,0,0.365,0.073,0.498,0.206c0.19,0.19,0.254,0.467,0.167,0.724l-0.111,0.329   l-0.329,0.111c-0.074,0.025-0.15,0.037-0.229,0.037c-0.188,0-0.364-0.073-0.496-0.205c-0.133-0.133-0.206-0.31-0.206-0.498   s0.073-0.365,0.206-0.498S50.826,13.033,51.014,13.033 M44.343,24.357c0.268,0,0.51,0.151,0.63,0.394l0.154,0.311l-0.154,0.311   c-0.121,0.243-0.362,0.394-0.63,0.394c-0.389,0-0.705-0.316-0.705-0.705S43.954,24.357,44.343,24.357 M51.014,11.933   c-0.462,0-0.924,0.176-1.276,0.529c-0.705,0.705-0.705,1.848,0,2.552c0.352,0.352,0.812,0.527,1.273,0.527   c0.196,0,0.392-0.032,0.579-0.095l4.216,4.216l-4.6,4.6h-5.248c-0.295-0.595-0.907-1.005-1.616-1.005   c-0.997,0-1.805,0.808-1.805,1.805s0.808,1.805,1.805,1.805c0.709,0,1.321-0.41,1.616-1.005h5.911l6.2-6.2l-5.347-5.347   c0.212-0.629,0.069-1.352-0.432-1.853C51.938,12.11,51.476,11.933,51.014,11.933L51.014,11.933z"/><path d="M42.014,13.033c0.188,0,0.365,0.073,0.498,0.206c0.19,0.19,0.254,0.467,0.167,0.724l-0.111,0.329   l-0.329,0.111c-0.074,0.025-0.15,0.037-0.229,0.037c-0.188,0-0.364-0.073-0.496-0.205c-0.275-0.275-0.275-0.722,0-0.997   C41.649,13.107,41.826,13.033,42.014,13.033 M46.665,17.683c0.188,0,0.364,0.073,0.496,0.205c0.275,0.275,0.275,0.722,0,0.997   c-0.133,0.133-0.31,0.206-0.498,0.206s-0.365-0.073-0.498-0.206c-0.19-0.19-0.254-0.467-0.167-0.724l0.111-0.329l0.329-0.111   C46.51,17.695,46.587,17.683,46.665,17.683 M42.014,11.933c-0.462,0-0.924,0.176-1.276,0.529c-0.705,0.705-0.705,1.848,0,2.552   c0.352,0.352,0.812,0.527,1.273,0.527c0.196,0,0.392-0.032,0.579-0.095l2.363,2.363c-0.212,0.629-0.069,1.352,0.432,1.853   c0.352,0.352,0.814,0.529,1.276,0.529s0.924-0.176,1.276-0.529c0.705-0.705,0.705-1.848,0-2.552   c-0.352-0.352-0.812-0.527-1.273-0.527c-0.196,0-0.392,0.032-0.579,0.095l-2.363-2.363c0.212-0.629,0.069-1.352-0.432-1.853   C42.938,12.11,42.476,11.933,42.014,11.933L42.014,11.933z"/><path d="M61.062,29.233c0.188,0,0.365,0.073,0.498,0.206c0.275,0.275,0.275,0.722,0,0.997   c-0.132,0.132-0.308,0.205-0.496,0.205c-0.078,0-0.155-0.013-0.229-0.037l-0.329-0.111l-0.111-0.329   c-0.086-0.257-0.022-0.534,0.167-0.724C60.697,29.307,60.874,29.233,61.062,29.233 M61.065,37.483c0.188,0,0.364,0.073,0.496,0.205   c0.275,0.275,0.275,0.722,0,0.997c-0.133,0.133-0.31,0.206-0.498,0.206c-0.188,0-0.365-0.073-0.498-0.206   c-0.19-0.19-0.254-0.467-0.167-0.724l0.111-0.329l0.329-0.111C60.91,37.495,60.987,37.483,61.065,37.483 M61.062,28.133   c-0.462,0-0.924,0.176-1.276,0.529c-0.501,0.501-0.644,1.224-0.432,1.853l-1.416,1.416v4.263l1.416,1.416   c-0.212,0.629-0.069,1.352,0.432,1.853c0.352,0.352,0.814,0.529,1.276,0.529s0.924-0.176,1.276-0.529   c0.705-0.705,0.705-1.848,0-2.552c-0.352-0.352-0.813-0.527-1.273-0.527c-0.196,0-0.392,0.032-0.579,0.095l-0.947-0.947v-2.937   l0.947-0.947c0.188,0.063,0.384,0.095,0.579,0.095c0.461,0,0.922-0.175,1.273-0.527c0.705-0.705,0.705-1.848,0-2.552   C61.986,28.31,61.524,28.133,61.062,28.133L61.062,28.133z"/><path d="M16.814,38.233c0.188,0,0.365,0.073,0.498,0.206c0.19,0.19,0.254,0.467,0.167,0.724l-0.111,0.329   l-0.329,0.111c-0.074,0.025-0.15,0.037-0.229,0.037c-0.188,0-0.364-0.073-0.496-0.205c-0.133-0.133-0.206-0.31-0.206-0.498   s0.073-0.365,0.206-0.498S16.626,38.233,16.814,38.233 M44.333,49.557c0.389,0,0.705,0.316,0.705,0.705   c0,0.389-0.316,0.705-0.705,0.705c-0.268,0-0.51-0.151-0.63-0.394l-0.154-0.311l0.154-0.311   C43.823,49.708,44.065,49.557,44.333,49.557 M16.814,37.133c-0.462,0-0.924,0.176-1.276,0.529c-0.705,0.705-0.705,1.848,0,2.552   c0.352,0.352,0.812,0.527,1.273,0.527c0.196,0,0.392-0.032,0.579-0.095l10.416,10.416h14.911c0.295,0.595,0.907,1.005,1.616,1.005   c0.997,0,1.805-0.808,1.805-1.805s-0.808-1.805-1.805-1.805c-0.709,0-1.321,0.41-1.616,1.005H28.469l-9.947-9.947   c0.212-0.629,0.069-1.352-0.432-1.853C17.738,37.31,17.276,37.133,16.814,37.133L16.814,37.133z"/><path d="M84.462,38.233c0.188,0,0.365,0.073,0.498,0.206c0.275,0.275,0.275,0.722,0,0.997   c-0.132,0.132-0.308,0.205-0.496,0.205c-0.078,0-0.155-0.013-0.229-0.037l-0.329-0.111l-0.111-0.329   c-0.086-0.257-0.022-0.534,0.167-0.724C84.097,38.307,84.274,38.233,84.462,38.233 M77.171,49.472l0.311,0.154   c0.243,0.121,0.394,0.362,0.394,0.631c0,0.389-0.316,0.705-0.705,0.705s-0.705-0.316-0.705-0.705c0-0.268,0.151-0.51,0.394-0.631   L77.171,49.472 M84.462,37.133c-0.462,0-0.924,0.176-1.276,0.529c-0.501,0.501-0.644,1.224-0.432,1.853l-6.382,6.382v2.744   c-0.595,0.295-1.005,0.907-1.005,1.616c0,0.997,0.808,1.805,1.805,1.805c0.997,0,1.805-0.808,1.805-1.805   c0-0.709-0.41-1.321-1.005-1.616V46.56l5.914-5.914c0.188,0.063,0.384,0.095,0.579,0.095c0.461,0,0.922-0.175,1.273-0.527   c0.705-0.705,0.705-1.848,0-2.552C85.386,37.31,84.924,37.133,84.462,37.133L84.462,37.133z"/><path d="M49.738,54.962c0.389,0,0.705,0.316,0.705,0.705c0,0.268-0.151,0.51-0.394,0.63l-0.311,0.154l-0.311-0.154   c-0.243-0.121-0.394-0.362-0.394-0.63C49.033,55.278,49.35,54.962,49.738,54.962 M49.733,85.557c0.389,0,0.705,0.316,0.705,0.705   c0,0.389-0.316,0.705-0.705,0.705c-0.268,0-0.51-0.151-0.63-0.394l-0.154-0.311l0.154-0.311   C49.223,85.708,49.465,85.557,49.733,85.557 M49.738,53.862c-0.997,0-1.805,0.808-1.805,1.805c0,0.709,0.41,1.321,1.005,1.616   v21.448l-8.331,8.331h7.511c0.295,0.595,0.907,1.005,1.616,1.005c0.997,0,1.805-0.808,1.805-1.805s-0.808-1.805-1.805-1.805   c-0.709,0-1.321,0.41-1.616,1.005h-3.648l6.069-6.069V57.282c0.595-0.295,1.005-0.907,1.005-1.616   C51.543,54.67,50.735,53.862,49.738,53.862L49.738,53.862z"/><path d="M86.262,45.433c0.188,0,0.365,0.073,0.498,0.206c0.275,0.275,0.275,0.722,0,0.997   c-0.132,0.132-0.308,0.205-0.496,0.205c-0.078,0-0.155-0.013-0.229-0.037l-0.329-0.111l-0.111-0.329   c-0.086-0.257-0.022-0.534,0.167-0.724C85.897,45.507,86.074,45.433,86.262,45.433 M71.405,78.272l0.311,0.154   c0.243,0.121,0.394,0.362,0.394,0.631c0,0.389-0.316,0.705-0.705,0.705S70.7,79.446,70.7,79.057c0-0.268,0.151-0.51,0.394-0.631   L71.405,78.272 M86.262,44.333c-0.462,0-0.924,0.176-1.276,0.529c-0.501,0.501-0.644,1.224-0.432,1.853l-1.416,1.416v6.731h-6.731   l-5.802,5.802v16.778c-0.595,0.295-1.005,0.907-1.005,1.616c0,0.997,0.808,1.805,1.805,1.805c0.997,0,1.805-0.808,1.805-1.805   c0-0.709-0.41-1.321-1.005-1.616V61.327l4.865-4.865h7.669v-7.669l0.947-0.947c0.188,0.063,0.384,0.095,0.579,0.095   c0.461,0,0.922-0.175,1.273-0.527c0.705-0.705,0.705-1.848,0-2.552C87.186,44.51,86.724,44.333,86.262,44.333L86.262,44.333z"/><path d="M83.933,60.357c0.389,0,0.705,0.316,0.705,0.705c0,0.389-0.316,0.705-0.705,0.705   c-0.268,0-0.51-0.151-0.63-0.394l-0.154-0.311l0.154-0.311C83.423,60.508,83.665,60.357,83.933,60.357 M78.865,71.883   c0.188,0,0.364,0.073,0.496,0.205c0.275,0.275,0.275,0.722,0,0.997c-0.133,0.133-0.31,0.206-0.498,0.206   c-0.188,0-0.365-0.073-0.498-0.206c-0.19-0.19-0.254-0.467-0.167-0.724l0.111-0.329l0.329-0.111   C78.71,71.895,78.787,71.883,78.865,71.883 M83.933,59.257c-0.709,0-1.321,0.41-1.616,1.005h-4.111l-2.469,2.469v7.863l1.416,1.416   c-0.212,0.629-0.069,1.352,0.432,1.853c0.352,0.352,0.814,0.529,1.276,0.529c0.462,0,0.924-0.176,1.276-0.529   c0.705-0.705,0.705-1.848,0-2.552c-0.352-0.352-0.813-0.527-1.273-0.527c-0.196,0-0.392,0.032-0.579,0.095l-0.947-0.947v-6.537   l1.531-1.531h3.448c0.295,0.595,0.907,1.005,1.616,1.005c0.997,0,1.805-0.808,1.805-1.805S84.93,59.257,83.933,59.257   L83.933,59.257z"/><path d="M64.665,82.483c0.188,0,0.364,0.073,0.496,0.205c0.133,0.133,0.206,0.31,0.206,0.498   s-0.073,0.365-0.206,0.498s-0.31,0.206-0.498,0.206c-0.188,0-0.365-0.073-0.498-0.206c-0.19-0.19-0.254-0.467-0.167-0.724   l0.111-0.329l0.329-0.111C64.51,82.495,64.587,82.483,64.665,82.483 M55.138,85.472l0.311,0.154   c0.243,0.121,0.394,0.362,0.394,0.63c0,0.389-0.316,0.705-0.705,0.705c-0.389,0-0.705-0.316-0.705-0.705   c0-0.268,0.151-0.51,0.394-0.63L55.138,85.472 M54.338,71.731v12.911c-0.595,0.295-1.005,0.907-1.005,1.616   c0,0.997,0.808,1.805,1.805,1.805s1.805-0.808,1.805-1.805c0-0.709-0.41-1.321-1.005-1.616v-9.048l7.016,7.016   c-0.212,0.629-0.069,1.352,0.432,1.853c0.352,0.352,0.814,0.529,1.276,0.529c0.462,0,0.924-0.176,1.276-0.529   c0.705-0.705,0.705-1.848,0-2.552c-0.352-0.352-0.812-0.527-1.273-0.527c-0.196,0-0.392,0.032-0.579,0.095L54.338,71.731   L54.338,71.731z"/><path d="M44.338,56.762c0.389,0,0.705,0.316,0.705,0.705c0,0.268-0.151,0.51-0.394,0.63l-0.311,0.154l-0.311-0.154   c-0.243-0.121-0.394-0.362-0.394-0.63C43.633,57.078,43.95,56.762,44.338,56.762 M38.412,82.483c0.078,0,0.155,0.013,0.229,0.037   l0.329,0.111l0.111,0.329c0.086,0.257,0.022,0.534-0.167,0.724c-0.133,0.133-0.31,0.206-0.498,0.206   c-0.188,0-0.365-0.073-0.498-0.206s-0.206-0.31-0.206-0.498s0.073-0.365,0.206-0.498C38.048,82.555,38.224,82.483,38.412,82.483    M44.338,55.662c-0.997,0-1.805,0.808-1.805,1.805c0,0.709,0.41,1.321,1.005,1.616v17.848l-4.547,4.547   c-0.188-0.063-0.384-0.095-0.579-0.095c-0.461,0-0.922,0.175-1.273,0.527c-0.705,0.705-0.705,1.848,0,2.552   c0.352,0.352,0.814,0.529,1.276,0.529c0.462,0,0.924-0.176,1.276-0.529c0.501-0.501,0.644-1.224,0.432-1.853l5.016-5.016V59.082   c0.595-0.295,1.005-0.907,1.005-1.616C46.143,56.47,45.335,55.662,44.338,55.662L44.338,55.662z"/><path d="M20.414,50.833c0.188,0,0.365,0.073,0.498,0.206c0.19,0.19,0.254,0.467,0.167,0.724l-0.111,0.329   l-0.329,0.111c-0.074,0.025-0.15,0.037-0.229,0.037c-0.188,0-0.364-0.073-0.496-0.205c-0.275-0.275-0.275-0.722,0-0.997   C20.049,50.907,20.226,50.833,20.414,50.833 M37.665,68.083c0.188,0,0.364,0.073,0.496,0.205c0.275,0.275,0.275,0.722,0,0.997   c-0.133,0.133-0.31,0.206-0.498,0.206s-0.365-0.073-0.498-0.206c-0.19-0.19-0.254-0.467-0.167-0.724l0.111-0.329l0.329-0.111   C37.51,68.095,37.587,68.083,37.665,68.083 M20.414,49.733c-0.462,0-0.924,0.176-1.276,0.529c-0.705,0.705-0.705,1.848,0,2.552   c0.352,0.352,0.812,0.527,1.273,0.527c0.196,0,0.392-0.032,0.579-0.095l14.963,14.963c-0.212,0.629-0.069,1.352,0.432,1.853   c0.352,0.352,0.814,0.529,1.276,0.529c0.462,0,0.924-0.176,1.276-0.529c0.705-0.705,0.705-1.848,0-2.552   c-0.352-0.352-0.812-0.527-1.273-0.527c-0.196,0-0.392,0.032-0.579,0.095L22.122,52.115c0.212-0.629,0.069-1.352-0.432-1.853   C21.338,49.91,20.876,49.733,20.414,49.733L20.414,49.733z"/><path d="M33.543,54.957c0.268,0,0.51,0.151,0.63,0.394l0.154,0.311l-0.154,0.311   c-0.121,0.243-0.362,0.394-0.63,0.394c-0.389,0-0.705-0.316-0.705-0.705C32.838,55.273,33.154,54.957,33.543,54.957 M38.938,60.272   l0.311,0.154c0.243,0.121,0.394,0.362,0.394,0.63c0,0.389-0.316,0.705-0.705,0.705c-0.389,0-0.705-0.316-0.705-0.705   c0-0.268,0.151-0.51,0.394-0.63L38.938,60.272 M33.543,53.857c-0.997,0-1.805,0.808-1.805,1.805s0.808,1.805,1.805,1.805   c0.709,0,1.321-0.41,1.616-1.005h2.979v2.979c-0.595,0.295-1.005,0.907-1.005,1.616c0,0.997,0.808,1.805,1.805,1.805   s1.805-0.808,1.805-1.805c0-0.709-0.41-1.321-1.005-1.616v-4.579h-4.579C34.863,54.267,34.252,53.857,33.543,53.857L33.543,53.857z   "/><path d="M25.814,65.233c0.188,0,0.365,0.073,0.498,0.206c0.19,0.19,0.254,0.467,0.167,0.724l-0.111,0.329   l-0.329,0.111c-0.074,0.025-0.15,0.037-0.229,0.037c-0.188,0-0.364-0.073-0.496-0.205c-0.133-0.133-0.206-0.31-0.206-0.498   c0-0.188,0.073-0.365,0.206-0.498S25.626,65.233,25.814,65.233 M33.012,80.683c0.078,0,0.155,0.013,0.229,0.037l0.329,0.111   l0.111,0.329c0.086,0.257,0.022,0.534-0.167,0.724c-0.133,0.133-0.31,0.206-0.498,0.206s-0.365-0.073-0.498-0.206   s-0.206-0.31-0.206-0.498c0-0.188,0.073-0.365,0.206-0.498C32.648,80.755,32.824,80.683,33.012,80.683 M25.814,64.133   c-0.462,0-0.924,0.176-1.276,0.529c-0.705,0.705-0.705,1.848,0,2.552c0.352,0.352,0.812,0.527,1.273,0.527   c0.196,0,0.392-0.032,0.579-0.095l9.616,9.616l-2.416,2.416c-0.188-0.063-0.384-0.095-0.579-0.095   c-0.461,0-0.922,0.175-1.273,0.527c-0.705,0.705-0.705,1.848,0,2.552c0.352,0.352,0.814,0.529,1.276,0.529   c0.462,0,0.924-0.176,1.276-0.529c0.501-0.501,0.644-1.224,0.432-1.853l3.547-3.547L27.522,66.515   c0.212-0.629,0.069-1.352-0.432-1.853C26.738,64.31,26.276,64.133,25.814,64.133L25.814,64.133z"/><path d="M18.614,67.033c0.188,0,0.365,0.073,0.498,0.206c0.19,0.19,0.254,0.467,0.167,0.724l-0.111,0.329   l-0.329,0.111c-0.074,0.025-0.15,0.037-0.229,0.037c-0.188,0-0.364-0.073-0.496-0.205c-0.275-0.275-0.275-0.722,0-0.997   C18.249,67.107,18.426,67.033,18.614,67.033 M26.865,75.283c0.188,0,0.364,0.073,0.496,0.205c0.275,0.275,0.275,0.722,0,0.997   c-0.133,0.133-0.31,0.206-0.498,0.206c-0.188,0-0.365-0.073-0.498-0.206c-0.19-0.19-0.254-0.467-0.167-0.724l0.111-0.329   l0.329-0.111C26.71,75.295,26.787,75.283,26.865,75.283 M18.614,65.933c-0.462,0-0.924,0.176-1.276,0.529   c-0.705,0.705-0.705,1.848,0,2.552c0.352,0.352,0.812,0.527,1.273,0.527c0.196,0,0.392-0.032,0.579-0.095l5.963,5.963   c-0.212,0.629-0.069,1.352,0.432,1.853c0.352,0.352,0.814,0.529,1.276,0.529c0.462,0,0.924-0.176,1.276-0.529   c0.705-0.705,0.705-1.848,0-2.552c-0.352-0.352-0.812-0.527-1.273-0.527c-0.196,0-0.392,0.032-0.579,0.095l-5.963-5.963   c0.212-0.629,0.069-1.352-0.432-1.853C19.538,66.11,19.076,65.933,18.614,65.933L18.614,65.933z"/></g></g><g id="SvgjsG1386" featureKey="nameFeature-0" transform="matrix(1.9063308380860593,0,0,1.9063308380860593,85.02602544985079,-22.817109881695995)" fill="#fff"><path d="M15.52 36.48 c0.24 0.28 -0.16 0.64 -0.16 0.64 c-2.16 2.08 -7.4 8.08 -8.64 7.36 c-0.56 -0.32 -0.12 -1.16 0.12 -1.64 c0.24 -0.52 0.6 -1.16 1 -1.88 c0.72 -1.24 1.44 -2.44 2 -3.72 c1.32 -2.64 1.32 -3.16 1.16 -3.2 c-1.24 -0.08 -3.92 2.2 -5.68 5.12 c0 0 -0.44 0.28 -0.8 0.04 c-0.32 -0.2 -0.16 -0.8 -0.16 -0.8 c0 -0.04 0.08 -0.12 0.2 -0.24 c0.44 -0.88 2.6 -4.88 2.56 -5 c-1.12 -0.32 -3.6 2.8 -4.52 4.32 s-1.32 2.16 -1.96 2.08 c-0.12 -0.04 -0.48 -0.16 -0.6 -0.68 c-0.4 -1.84 1.56 -5.48 1.8 -5.92 c0 0 0.36 -0.8 0.96 -0.4 c0.44 0.28 0.04 0.96 0.04 0.96 c-0.6 1.04 -1.36 2.8 -1.64 4.04 c0.16 -0.2 0.28 -0.44 0.44 -0.64 c1.36 -2.28 4 -5.68 6.04 -4.72 l0.08 0 l0.04 0.04 c0.64 0.56 -0.2 1.88 -0.64 3.12 c0.64 -0.6 3.92 -3.28 4.88 -1.76 c0.88 1.52 -1.12 4.52 -3.12 7.96 c-0.16 0.32 -0.36 0.68 -0.56 1 c2.2 -1.08 5.8 -5.24 6.56 -6.16 c0 0 0.36 -0.2 0.6 0.08 z M20.722 39.72 c-0.4 0 -0.72 -0.2 -0.84 -0.56 c-0.6 -1.52 2.56 -6.4 2.96 -7.44 c0 0 0.44 -1.08 1.16 -1 c0.76 0.08 0.96 0.96 0.8 1.32 c-0.12 0.32 -0.88 0.56 -0.96 0.68 c-1.08 2.44 -3.04 4.84 -2.96 5.84 c1.2 0.8 5.12 -2.92 6.52 -4.24 c0.12 -0.08 0.28 -0.56 0.6 -0.44 c0.4 0.16 0.12 0.52 -0.04 0.68 c-1.32 1.4 -5.08 5.2 -7.16 5.16 l-0.08 0 z M25.722 28.32 c0 0.4 0 0.76 -0.36 0.76 c-0.32 0 -0.6 -0.36 -0.6 -0.76 c0 -0.44 0.28 -0.76 0.6 -0.76 c0.36 0 0.52 0.36 0.36 0.76 z M42.964 16.48 c-4.48 8.2 -10.64 19.6 -10.36 26.12 c0.04 0.28 0.12 0.56 0.28 0.64 c1.52 0.76 4.36 -5.04 5.4 -6.64 c0 0 0.36 -0.96 0.88 -0.52 c0.36 0.32 -0.12 0.6 -0.12 0.6 c-0.52 0.6 -4.2 7.52 -5.92 7.4 c-1.6 -0.12 -1.64 -1.48 -1.64 -1.48 c-0.16 -7.96 7.48 -21.44 12.44 -30.2 c0 0 0.52 -0.64 1.2 -0.36 c0.52 0.24 0.32 0.92 0.32 0.92 c0 0.04 -0.72 0.72 -2.48 3.52 z M54.726 33.24 c0.04 0.48 -0.56 0.36 -0.56 0.36 c-0.28 0.04 -1.24 0.08 -2.52 0.04 c-0.52 0 -1 0 -1.16 0.04 c0.04 0.96 -0.32 2.08 -0.88 3.12 c-0.92 1.6 -2.4 3.04 -3.84 3.04 c-0.36 0 -0.72 -0.08 -1.08 -0.28 c-0.56 -0.32 -0.88 -0.8 -1 -1.4 c-0.4 -2.4 3.92 -7.12 4.32 -7.56 c0 0 0.48 -0.48 0.8 -0.28 c0.52 0.36 0.08 0.88 0.08 0.88 c-1.44 1.56 -4.28 5.4 -4.08 6.76 c0.04 0.28 0.16 0.72 0.4 0.84 c1.04 0.56 2.52 -1.04 3.36 -2.56 c0.52 -0.88 0.8 -1.88 0.76 -2.6 c-0.52 -0.12 -0.84 -0.32 -0.96 -0.64 c-0.2 -0.44 0.08 -0.92 0.4 -1.2 l0.32 -0.24 l0.36 0.2 c0.32 0.2 0.56 0.44 0.76 0.76 c0.2 0.24 0.48 0.36 0.76 0.44 c1.08 0.12 2.08 0.12 2.72 0.04 c0 0 0.96 -0.44 1.04 0.24 z M85.64999999999999 13.16 c0.48 0.32 0 1.12 0 1.12 c-2.68 5.36 -8.2 16.68 -11.56 24.44 c0.6 -0.6 1.2 -1.04 1.88 -1.12 c0.56 -0.08 1.08 0.08 1.56 0.52 c0.12 0.12 0.36 0.44 0.48 0.6 c0.88 -1.2 1.72 -2.36 2.4 -3.16 c0.36 -0.44 0.56 -0.92 0.76 -1.12 c0.52 -0.56 1.24 0.04 0.8 0.52 c-0.16 0.16 -0.56 0.56 -1 1.08 c-0.64 0.88 -1.48 2.16 -2.52 3.56 c0.32 1 0.28 2.2 -0.12 3.52 c-0.72 2.32 -2.6 4.88 -4.52 5.16 l-0.2 0 c-0.56 0 -0.8 -0.36 -0.84 -0.52 c-0.2 -0.36 -0.6 -1.28 3.52 -7.12 c0.28 -0.36 0.56 -0.76 0.84 -1.16 c-0.08 -0.2 -0.24 -0.36 -0.4 -0.52 c-0.28 -0.24 -0.48 -0.24 -0.6 -0.24 c-0.84 0.12 -2.8 3.04 -4.04 4.92 c-0.48 1.32 -0.76 2.32 -0.76 2.8 c0 0 -0.16 0.36 -0.64 0.36 c-0.52 0 -0.52 -0.36 -0.52 -0.36 c0 -3.64 12.96 -29.72 14.44 -32.64 c0 0 0.56 -0.96 1.04 -0.64 z M77.52999999999999 40.92 c-0.08 0.08 -0.12 0.12 -0.16 0.2 c-2.52 3.56 -3.36 5.32 -3.52 5.96 c1.2 -0.32 2.76 -2.28 3.4 -4.32 c0.12 -0.4 0.28 -1.12 0.28 -1.84 z M96.05199999999999 34.2 c0.36 0.28 -0.16 0.6 -0.16 0.6 c-0.32 0.36 -4.8 5.48 -8.16 5.16 c-0.12 0 -0.24 -0.04 -0.36 -0.04 c-0.4 -0.08 -0.92 -0.36 -1.24 -1.12 c-0.88 -2.24 0.56 -4.6 2.28 -5.88 c1.08 -0.8 2.04 -1 2.6 -0.52 c0.28 0.2 0.44 0.52 0.4 0.88 c-0.04 1.2 -2.24 2.8 -2.92 3.24 c0 0 -0.28 0.08 -0.6 -0.24 c-0.32 -0.36 -0.04 -0.72 -0.04 -0.72 c1.2 -0.8 2.28 -1.84 2.4 -2.28 c-0.24 0 -0.96 0.28 -1.8 1.12 c-0.96 1 -1.8 2.56 -1.24 3.96 c0.56 1.08 2.04 0.52 3.24 0.04 c1.28 -0.48 4.04 -2.92 4.68 -3.68 c0 0 0.4 -1 0.92 -0.52 z M117.69399999999999 12.96 c-0.12 0.32 -12.88 27.72 -14.92 34.28 c-0.12 0.36 0.52 0.6 0.24 1.04 c0 0 -0.36 0.24 -0.92 0.16 c-0.52 -0.12 -0.44 -0.8 -0.44 -0.8 c0.4 -2.08 3.72 -9.96 7.16 -17.76 c-0.88 1.56 -1.68 2.92 -2.28 3.88 c0.08 0.12 0.12 0.32 0.04 0.52 c-0.16 0.36 -0.36 0.32 -0.52 0.24 c-0.08 0.08 -0.16 0.2 -0.24 0.28 l-0.28 0.4 c-1.4 1.8 -2.64 3.36 -3.96 3.48 c-0.04 0.04 -0.12 0.04 -0.2 0.04 c-0.4 0 -0.8 -0.16 -1.16 -0.44 c-0.44 -0.4 -0.6 -1.04 -0.44 -1.88 c0.32 -1.52 1.72 -3.48 3.44 -3.96 c0.64 -0.16 1.56 -0.2 2.48 0.48 c2.56 -4.08 8.8 -15.8 9.16 -16.48 c1 -2.2 1.68 -3.68 1.8 -3.96 c0 0 0.36 -0.36 0.76 -0.16 c0.44 0.2 0.28 0.64 0.28 0.64 z M104.934 34.08 c0.04 -0.04 0.2 -0.32 0.24 -0.36 c-0.32 -0.28 -1.2 -0.52 -1.72 -0.4 c-1.2 0.24 -2.28 2.16 -2.56 3.32 c-0.08 0.4 -0.04 0.68 0.04 0.72 c0.24 0.2 0.4 0.2 0.52 0.2 c0.84 -0.12 2.08 -1.68 3.16 -3.08 z M114.81599999999999 39.72 c-0.4 0 -0.72 -0.2 -0.84 -0.56 c-0.6 -1.52 2.56 -6.4 2.96 -7.44 c0 0 0.44 -1.08 1.16 -1 c0.76 0.08 0.96 0.96 0.8 1.32 c-0.12 0.32 -0.88 0.56 -0.96 0.68 c-1.08 2.44 -3.04 4.84 -2.96 5.84 c1.2 0.8 5.12 -2.92 6.52 -4.24 c0.12 -0.08 0.28 -0.56 0.6 -0.44 c0.4 0.16 0.12 0.52 -0.04 0.68 c-1.32 1.4 -5.08 5.2 -7.16 5.16 l-0.08 0 z M119.81599999999999 28.32 c0 0.4 0 0.76 -0.36 0.76 c-0.32 0 -0.6 -0.36 -0.6 -0.76 c0 -0.44 0.28 -0.76 0.6 -0.76 c0.36 0 0.52 0.36 0.36 0.76 z M136.53799999999998 35.519999999999996 c0.24 -0.52 0.8 -0.36 0.72 -0.16 c-1.88 4.48 -6.16 8.2 -7.36 8.2 c-0.12 0 -0.2 -0.04 -0.24 -0.04 c-0.2 -0.04 -0.64 -0.24 -0.64 -0.96 c-0.04 -1.04 0.76 -2.56 1.64 -4.28 c0.52 -1.08 1.04 -2.2 1.32 -3.08 c0.32 -0.88 0.24 -1.36 0.2 -1.48 c-1.12 -0.32 -2.88 2.52 -3.8 4.08 c-0.96 1.56 -1.36 2.2 -2 2.08 c-0.16 0 -0.48 -0.12 -0.6 -0.68 c-0.4 -1.88 1.8 -5.56 2 -5.96 c0 0 0.28 -0.96 1.2 -0.32 c0.44 0.28 -0.36 0.84 -0.36 0.84 c-0.6 1.04 -1.4 2.84 -1.64 4.12 c0.12 -0.24 0.28 -0.48 0.4 -0.68 c1.4 -2.32 3.32 -5.44 5.36 -4.48 l0.08 0.04 l0.08 0.04 c1.12 0.96 0.04 3.2 -1.2 5.8 c-0.64 1.28 -1.32 2.72 -1.48 3.6 c1.2 0.16 4.48 -2.88 6.32 -6.68 z M142.1 39.72 c-0.4 0 -0.72 -0.2 -0.84 -0.56 c-0.6 -1.52 2.56 -6.4 2.96 -7.44 c0 0 0.44 -1.08 1.16 -1 c0.76 0.08 0.96 0.96 0.8 1.32 c-0.12 0.32 -0.88 0.56 -0.96 0.68 c-1.08 2.44 -3.04 4.84 -2.96 5.84 c1.2 0.8 5.12 -2.92 6.52 -4.24 c0.12 -0.08 0.28 -0.56 0.6 -0.44 c0.4 0.16 0.12 0.52 -0.04 0.68 c-1.32 1.4 -5.08 5.2 -7.16 5.16 l-0.08 0 z M147.1 28.32 c0 0.4 0 0.76 -0.36 0.76 c-0.32 0 -0.6 -0.36 -0.6 -0.76 c0 -0.44 0.28 -0.76 0.6 -0.76 c0.36 0 0.52 0.36 0.36 0.76 z"/></g>
			</g>
		</svg>
	