
        <svg xmlns="http://www.w3.org/2000/svg" xmlns:xlink="http://www.w3.org/1999/xlink" version="1.1" width="3162.094763092269" height="618.3978688236101" viewBox="0 0 3162.094763092269 618.3978688236101">
			
			<g transform="scale(8.104738154613466) translate(10, 10)">
				<defs id="SvgjsDefs3354"/><g id="SvgjsG3355" featureKey="monogramFeature-0" transform="matrix(0.8317293114445373,0,0,0.8317293114445373,11.477862276977744,-6.481715419585937)" fill="#fff"><path d="M26.28 51.72 c6.54 10.38 13.74 18.84 24.66 19.5 l0 0.36 c-23.28 -1.38 -31.38 -28.5 -43.68 -45.72 l0 31.02 c0 2.76 1.14 2.82 4.08 2.82 l0 0.42 l-9.06 0 l0 -0.42 c2.94 0 4.14 -0.06 4.14 -2.82 l0 -32.16 c-5.4 -7.2 -11.58 -12.48 -20.22 -12.96 l0.06 -0.36 c8.64 0.54 15.18 4.8 20.7 10.86 l0.3 0 l0 0.3 c7.14 7.92 12.6 18.9 18.48 28.38 l14.04 -28.74 l5.76 0 l0 0.42 c-2.94 0 -4.14 0.06 -4.14 2.82 l0 31.44 c0 2.76 1.2 2.82 4.14 2.82 l0 0.42 l-10.74 0 l0 -0.42 c2.94 0 4.14 -0.06 4.14 -2.82 l0 -31.26 z"/></g><g id="SvgjsG3356" featureKey="nameFeature-0" transform="matrix(1.942618317402874,0,0,1.942618317402874,72.01852889014528,-21.407988219575024)" fill="#fff"><path d="M25.338 40 c-0.1732 0 -0.34879 -0.044412 -0.50916 -0.13723 l-3.688 -2.1352 c-0.4868 -0.2816 -0.7012 -0.6532 -0.7012 -1.2156 l0 -15.494 c0 -0.5632 0.4568 -1.02 1.02 -1.02 s1.02 0.4568 1.02 1.02 l0 15.126 l1.844 1.066 l0 -22.339 l-2.864 -1.6552 l-7.2428 4.1864 c-0.1532 0.092384 -0.33281 0.14559 -0.5248 0.14559 c-0.5632 0 -1.02 -0.4568 -1.02 -1.02 c0 -0.38398 0.21238 -0.7184 0.52596 -0.8924 l7.56 -4.37 c0.24359 -0.14078 0.4728 -0.21117 0.70204 -0.21117 s0.45844 0.070392 0.70204 0.21117 l3.5008 2.0236 c0.4872 0.2816 0.7016 0.6532 0.7016 1.2156 l-0.004414 24.474 c0 0.5504 -0.454 1.0204 -1.022 1.0204 z M5.9236 39.99957032 c-0.19199 0 -0.37199 -0.052032 -0.5252 -0.14441 l-3.6772 -2.1256 c-0.4868 -0.2816 -0.7012 -0.6532 -0.7012 -1.2156 l0 -22.007 c0 -0.5624 0.21442 -0.934 0.7012 -1.2156 l3.6772 -2.1256 c0.15359 -0.092384 0.3332 -0.14559 0.5252 -0.14559 c0.5632 0 1.02 0.4568 1.02 1.02 c0 0.38398 -0.21238 0.7184 -0.52596 0.8924 l-3.358 1.9408 l0 21.273 l3.358 1.9408 c0.31359 0.17398 0.52596 0.5084 0.52596 0.8924 c0 0.5632 -0.4568 1.02 -1.02 1.02 z M9.8072 37.7556 c-0.5632 0 -1.0192 -0.45724 -1.0192 -1.0204 l0 -16.192 l-1.844 1.066 l0 12.882 c0 0.5632 -0.4568 1.02 -1.02 1.02 s-1.02 -0.4568 -1.02 -1.02 l0 -13.248 c0 -0.5624 0.21442 -0.934 0.7012 -1.2156 l3.6868 -2.1332 c0.15559 -0.089608 0.33238 -0.13723 0.512 -0.13723 c0.6728 0 1.0188 0.5872 1.0188 1.02 l0.004414 17.96 c0 0.5632 -0.4568 1.02 -1.02 1.02 z M13.686 40.0011328 l0.003125 0.00082032 c-0.5508 0 -1.0212 -0.4568 -1.0212 -1.0252 l0.023594 -17.603 c0 -0.5628 0.4564 -1.0188 1.0192 -1.0188 c0.5632 0 1.02 0.4568 1.02 1.0212 l-0.017188 15.836 l1.842 -1.0648 l0 -17.15 c0 -0.5624 0.21442 -0.934 0.7016 -1.2156 l3.6772 -2.1256 c0.15359 -0.092384 0.3332 -0.14559 0.5252 -0.14559 c0.5632 0 1.02 0.4568 1.02 1.02 c0 0.38398 -0.21238 0.7184 -0.52596 0.8924 l-3.358 1.9408 l0 17.15 c0 0.5624 -0.21398 0.93436 -0.70116 1.2156 l-3.6964 2.1348 c-0.15559 0.089608 -0.33238 0.13723 -0.512 0.13723 z M5.9276 17.551 c-0.5632 0 -1.02 -0.4568 -1.02 -1.02 c0 -0.38398 0.21238 -0.7184 0.52596 -0.8924 l7.7364 -4.472 c0.15359 -0.092384 0.3332 -0.14559 0.5252 -0.14559 c0.5632 0 1.02 0.4568 1.02 1.02 c0 0.38398 -0.21238 0.7184 -0.52596 0.8924 l-7.7364 4.472 c-0.15359 0.092384 -0.3332 0.14559 -0.5252 0.14559 z M29.439200000000003 40 c-0.6728 0 -1.0188 -0.59208 -1.0188 -1.0249 l0.0048048 -15.711 c0 -0.5632 0.4564 -1.02 1.0196 -1.02 s1.02 0.4568 1.02 1.02 l0 13.947 l2.3388 -1.352 c0.15359 -0.092384 0.3332 -0.14559 0.5252 -0.14559 c0.5632 0 1.02 0.4568 1.02 1.02 c0 0.38398 -0.21558 0.7132 -0.52596 0.89244 l-3.8716 2.2364 c-0.15559 0.089608 -0.33238 0.13723 -0.512 0.13723 z M33.3308 33.2644 c-0.5632 0 -1.02 -0.4568 -1.02 -1.02 l0 -11.225 c0 -0.5632 0.4568 -1.02 1.02 -1.02 s1.02 0.4568 1.02 1.02 l0 11.225 c0 0.5632 -0.4568 1.02 -1.02 1.02 z M29.441200000000002 19.796 l0.0020312 0.0007422 c-0.6728 0 -1.0208 -0.5924 -1.0208 -1.0252 l0.0048048 -4.2644 c0.00078124 -0.5624 0.21438 -0.934 0.70116 -1.2156 l3.6772 -2.1256 c0.15359 -0.092384 0.3332 -0.14559 0.5252 -0.14559 c0.5632 0 1.02 0.4568 1.02 1.02 c0 0.38398 -0.21238 0.7184 -0.52596 0.8924 l-3.358 1.9408 l0 2.1336 l2.3388 -1.352 c0.15359 -0.092384 0.3332 -0.14559 0.5252 -0.14559 c0.5632 0 1.02 0.4568 1.02 1.02 c0 0.38398 -0.21558 0.7132 -0.52596 0.8928 l-3.8716 2.2364 c-0.15559 0.089608 -0.33238 0.13723 -0.512 0.13723 z M41.2888 35.7148 l0.0023438 0.00035156 c0.5632 0 1.02 0.4568 1.02 1.02 c0 0.38398 -0.21558 0.7132 -0.52596 0.8928 l-3.8716 2.2364 c-0.15559 0.089608 -0.33238 0.13723 -0.512 0.13723 c-0.5508 0 -1.0212 -0.4568 -1.0212 -1.0252 l0.0048048 -24.469 c0 -0.5624 0.21442 -0.934 0.7012 -1.2156 l3.6772 -2.1256 c0.15359 -0.092384 0.3332 -0.14559 0.5252 -0.14559 c0.5632 0 1.02 0.4568 1.02 1.02 c0 0.38398 -0.21238 0.7184 -0.52596 0.8924 l-3.358 1.9408 l0 22.339 l2.3388 -1.352 c0.15359 -0.092384 0.3332 -0.14559 0.5252 -0.14559 z M41.291199999999996 15.510000000000002 c0.5632 0 1.02 0.4568 1.02 1.02 l0 15.715 c0 0.5632 -0.4568 1.02 -1.02 1.02 s-1.02 -0.4568 -1.02 -1.02 l0 -15.715 c0 -0.5632 0.4568 -1.02 1.02 -1.02 z M49.244 39.963594 l0.0045312 0.0012109 c-0.22922 0 -0.45844 -0.070392 -0.70204 -0.21117 l-3.5008 -2.0236 c-0.4868 -0.2816 -0.7012 -0.6532 -0.7012 -1.2156 l0 -13.027 c0 -0.5624 0.21442 -0.934 0.7012 -1.2156 l3.6772 -2.1256 c0.15359 -0.092384 0.3332 -0.14559 0.5252 -0.14559 c0.5632 0 1.02 0.4568 1.02 1.02 c0 0.38398 -0.21238 0.7184 -0.52596 0.8924 l-3.358 1.9408 l0 12.293 l2.864 1.6556 l6.7476 -3.9004 l0 -11.114 l-5.7276 3.3108 l0 6.6236 l1.844 -1.066 l0 -3.9016 c0 -0.5632 0.4568 -1.02 1.02 -1.02 s1.02 0.4568 1.02 1.02 l0 4.2684 c0 0.5624 -0.21442 0.93436 -0.7016 1.2156 l-3.6964 2.1348 c-0.15559 0.089608 -0.33238 0.13723 -0.512 0.13723 c-0.6728 0 -1.0208 -0.5924 -1.0208 -1.0252 l0.0048048 -8.7544 c0 -0.5624 0.21398 -0.934 0.7008 -1.2156 l7.5708 -4.378 c0.15559 -0.089608 0.33238 -0.13723 0.512 -0.13723 c0.5504 0 1.0184 0.452 1.0184 1.0196 l0.004414 13.248 c0 0.5624 -0.2148 0.934 -0.702 1.2116 l-7.3844 4.2724 c-0.24359 0.14078 -0.4728 0.21117 -0.70204 0.21117 z M78.952 34.2684 c0 0.5624 -0.21356 0.9348 -0.70076 1.2124 l-7.3844 4.2724 c-0.24359 0.14078 -0.4728 0.21117 -0.70204 0.21117 s-0.45844 -0.070392 -0.70204 -0.21117 l-3.5008 -2.0236 c-0.4868 -0.2816 -0.7012 -0.6532 -0.7012 -1.2156 l0 -22.007 c0 -0.5624 0.21442 -0.934 0.7012 -1.2156 l3.6772 -2.1256 c0.15359 -0.092384 0.3332 -0.14559 0.5252 -0.14559 c0.5632 0 1.02 0.4568 1.02 1.02 c0 0.38398 -0.21238 0.7184 -0.52596 0.8924 l-3.358 1.9408 l0 21.273 l2.864 1.6556 l6.7476 -3.9004 l0 -3.3128 l-1.844 -1.066 l0 2.7224 c0 0.5632 -0.4568 1.02 -1.02 1.02 s-1.0192 -0.4568 -1.0192 -1.02 l-0.0051952 -4.4892 c0 -0.35078 0.18121 -0.692 0.5052 -0.8816 c0.16602 -0.096016 0.34281 -0.13961 0.5144 -0.13961 c0.18238 0 0.35879 0.04922 0.5104 0.13684 l3.6972 2.1344 c0.4868 0.2816 0.7012 0.6532 0.7012 1.2156 l0 4.0468 z M69.14479999999999 16.752 c0 -0.5624 0.21394 -0.93476 0.70076 -1.2164 l7.3844 -4.2684 c0.24359 -0.14078 0.4728 -0.21117 0.70204 -0.21117 s0.45844 0.070392 0.70204 0.21117 l3.5008 2.0236 c0.4872 0.2816 0.7016 0.6532 0.7016 1.2156 l0 8.5368 c0 0.5624 -0.21442 0.934 -0.7012 1.2156 l-3.6772 2.1256 c-0.15359 0.092384 -0.3332 0.14559 -0.5252 0.14559 c-0.5632 0 -1.02 -0.4568 -1.02 -1.02 c0 -0.38398 0.21238 -0.7184 0.52596 -0.8924 l3.358 -1.9408 l0 -7.8028 l-2.864 -1.6556 l-6.748 3.9004 l0 17.372 c0 0.5632 -0.4568 1.02 -1.02 1.02 s-1.02 -0.4568 -1.02 -1.02 l0 -17.738 z M73.55439999999999 22.372 l3.3576 -1.9416 l0 -2.1336 l-2.3388 1.352 c-0.1532 0.092384 -0.33281 0.14559 -0.5248 0.14559 c-0.5632 0 -1.02 -0.4568 -1.02 -1.02 c0 -0.38398 0.21558 -0.71276 0.52596 -0.89276 l3.8632 -2.236 c0.16078 -0.092812 0.33598 -0.1368 0.50916 -0.1368 c0.35238 0 0.6952 0.18281 0.884 0.51 c0.092812 0.16078 0.1368 0.33598 0.1368 0.50916 l0.0048048 4.2696 c0.00039062 0.5624 -0.2148 0.934 -0.702 1.2156 l-3.6772 2.1256 c-0.1532 0.092384 -0.33281 0.14559 -0.5248 0.14559 c-0.5632 0 -1.02 -0.4568 -1.02 -1.02 c0 -0.38398 0.21238 -0.7184 0.52596 -0.8924 z M81.816 26.734 c0.5632 0 1.02 0.4564 1.02 1.0196 l0 8.7584 c0 0.5624 -0.21442 0.934 -0.7016 1.2156 l-3.6772 2.1256 c-0.15359 0.092384 -0.3332 0.14559 -0.5252 0.14559 c-0.5632 0 -1.02 -0.4568 -1.02 -1.02 c0 -0.38398 0.21238 -0.7184 0.52596 -0.8924 l3.358 -1.9408 l0 -8.3916 c0 -0.5632 0.4568 -1.02 1.02 -1.02 z M89.76400000000001 39.963594 c-0.22922 0 -0.4576 -0.069608 -0.70116 -0.21039 l-3.5008 -2.0236 c-0.4868 -0.2816 -0.7012 -0.6532 -0.7012 -1.2156 l0 -13.027 c0 -0.5624 0.21442 -0.934 0.7012 -1.2156 l3.6772 -2.1256 c0.15359 -0.092384 0.3332 -0.14559 0.5252 -0.14559 c0.5632 0 1.02 0.4568 1.02 1.02 c0 0.38398 -0.21238 0.7184 -0.52596 0.8924 l-3.358 1.9408 l0 12.293 l2.864 1.6556 l6.7476 -3.9004 l0 -3.9016 c0 -0.5632 0.4568 -1.02 1.02 -1.02 s1.02 0.4568 1.02 1.02 l0 4.2684 c0 0.5624 -0.21442 0.934 -0.7016 1.2116 l-7.3844 4.2724 c-0.24359 0.14078 -0.4728 0.21117 -0.70204 0.21117 z M89.7592 35.5116 l0.0024609 -0.00042968 c-0.6728 0 -1.0208 -0.5924 -1.0208 -1.0252 l0.0048048 -8.7544 c0 -0.5624 0.21398 -0.934 0.70116 -1.2156 l7.5708 -4.378 c0.15559 -0.089608 0.33238 -0.13723 0.512 -0.13723 c0.5504 0 1.0184 0.452 1.0184 1.0196 l0.004414 4.268 c0.00039062 0.5624 -0.2148 0.934 -0.702 1.2156 l-3.6772 2.1256 c-0.1532 0.092384 -0.33281 0.14559 -0.5248 0.14559 c-0.5632 0 -1.02 -0.4568 -1.02 -1.02 c0 -0.38398 0.21238 -0.7184 0.52596 -0.8924 l3.358 -1.9408 l0 -2.1336 l-5.7276 3.3108 l0 6.6236 l2.3388 -1.352 c0.15359 -0.092384 0.3332 -0.14559 0.5252 -0.14559 c0.5632 0 1.02 0.4568 1.02 1.02 c0 0.38398 -0.2152 0.7132 -0.52596 0.8928 l-3.8716 2.2364 c-0.15559 0.089608 -0.33238 0.13723 -0.512 0.13723 z M105.284 39.963594 l0.0037109 0.0011719 c-0.22922 0 -0.45844 -0.070392 -0.70204 -0.21117 l-3.5008 -2.0236 c-0.4868 -0.2816 -0.7012 -0.6532 -0.7012 -1.2156 l0 -8.5368 c0 -0.5624 0.21442 -0.934 0.7012 -1.2156 l7.0664 -4.0844 l0 -8.17 c0 -0.5624 0.21442 -0.934 0.7012 -1.2156 l3.6772 -2.1256 c0.15359 -0.092384 0.3332 -0.14559 0.5252 -0.14559 c0.5632 0 1.02 0.4568 1.02 1.02 c0 0.38398 -0.21238 0.7184 -0.52596 0.8924 l-3.358 1.9408 l0 8.17 c0 0.5624 -0.21442 0.934 -0.7012 1.2156 l-7.0664 4.0844 l0 7.8028 l2.864 1.6556 l6.7476 -3.9004 l0 -2.1336 l-6.2416 3.6064 c-0.15559 0.089608 -0.33238 0.13723 -0.512 0.13723 c-0.6728 0 -1.0208 -0.5924 -1.0208 -1.0252 l0.0048048 -4.2644 c0.00078124 -0.5624 0.21438 -0.934 0.70116 -1.2156 l3.6772 -2.1256 c0.15359 -0.092384 0.3332 -0.14559 0.5252 -0.14559 c0.5632 0 1.02 0.4568 1.02 1.02 c0 0.38398 -0.21238 0.7184 -0.52596 0.8924 l-3.358 1.9408 l0 2.1336 l6.2324 -3.6044 c0.15559 -0.089608 0.33238 -0.13723 0.512 -0.13723 c0.5504 0 1.0184 0.452 1.0184 1.0196 l0.004414 4.268 c0.00039062 0.5624 -0.2148 0.934 -0.7016 1.2116 l-7.3844 4.2724 c-0.24359 0.14078 -0.4728 0.21117 -0.70204 0.21117 z M113.055 40.0011719 c-0.5632 0 -1.0188 -0.4576 -1.0188 -1.0208 c0 -0.38398 0.21238 -0.7184 0.52596 -0.8924 l3.358 -1.9408 l0 -20.094 l-1.844 1.066 l0 8.3916 c0 0.5632 -0.4568 1.02 -1.02 1.02 s-1.02 -0.4568 -1.02 -1.02 l0 -8.7584 c0 -0.5624 0.21442 -0.934 0.7012 -1.2156 l3.6868 -2.1332 c0.15559 -0.089608 0.33238 -0.13723 0.512 -0.13723 c0.5504 0 1.0184 0.452 1.0184 1.0196 l0.004414 22.228 c0 0.5624 -0.21442 0.934 -0.7016 1.2156 l-3.6772 2.1256 c-0.15359 0.092384 -0.3332 0.14559 -0.5252 0.14559 z M120.9992 40 c-0.6728 0 -1.0188 -0.59208 -1.0188 -1.0249 l0.0048048 -15.711 c0 -0.5632 0.4564 -1.02 1.0196 -1.02 s1.02 0.4568 1.02 1.02 l0 13.947 l2.3388 -1.352 c0.15359 -0.092384 0.3332 -0.14559 0.5252 -0.14559 c0.5632 0 1.02 0.4568 1.02 1.02 c0 0.38398 -0.21558 0.7132 -0.52596 0.89244 l-3.8716 2.2364 c-0.15559 0.089608 -0.33238 0.13723 -0.512 0.13723 z M124.89080000000001 33.2644 c-0.5632 0 -1.02 -0.4568 -1.02 -1.02 l0 -11.225 c0 -0.5632 0.4568 -1.02 1.02 -1.02 s1.02 0.4568 1.02 1.02 l0 11.225 c0 0.5632 -0.4568 1.02 -1.02 1.02 z M121.00120000000001 19.796 l0.0020312 0.0007422 c-0.6728 0 -1.0208 -0.5924 -1.0208 -1.0252 l0.0048048 -4.2644 c0.00078124 -0.5624 0.21438 -0.934 0.70116 -1.2156 l3.6772 -2.1256 c0.15359 -0.092384 0.3332 -0.14559 0.5252 -0.14559 c0.5632 0 1.02 0.4568 1.02 1.02 c0 0.38398 -0.21238 0.7184 -0.52596 0.8924 l-3.358 1.9408 l0 2.1336 l2.3388 -1.352 c0.15359 -0.092384 0.3332 -0.14559 0.5252 -0.14559 c0.5632 0 1.02 0.4568 1.02 1.02 c0 0.38398 -0.21558 0.7132 -0.52596 0.8928 l-3.8716 2.2364 c-0.15559 0.089608 -0.33238 0.13723 -0.512 0.13723 z M133.864 21.02 c0 0.38398 -0.21199 0.7188 -0.5256 0.89276 l-3.358 1.9408 l0 12.882 c0 0.5632 -0.4568 1.02 -1.02 1.02 s-1.02 -0.4568 -1.02 -1.02 l0 -13.248 c0 -0.5624 0.21442 -0.934 0.7012 -1.2156 l3.6772 -2.1256 c0.15359 -0.092384 0.3332 -0.14559 0.5252 -0.14559 c0.5632 0 1.02 0.4568 1.02 1.02 z M144.815 22.271 l0.0048828 0.00125 c0.4872 0.2816 0.7016 0.6532 0.7016 1.2156 l0 13.027 c0 0.5624 -0.21442 0.934 -0.7016 1.2152 l-3.6964 2.1348 c-0.15559 0.089608 -0.33238 0.13723 -0.512 0.13723 c-0.6728 0 -1.0208 -0.5924 -1.0208 -1.0252 l0.0048048 -11.698 l-5.7276 3.3108 l0 6.6236 l1.844 -1.066 l0 -3.9016 c0 -0.5632 0.4568 -1.02 1.02 -1.02 s1.02 0.4568 1.02 1.02 l0 4.2684 c0 0.5624 -0.21442 0.934 -0.7016 1.2152 l-3.6964 2.1348 c-0.15559 0.089608 -0.33238 0.13723 -0.512 0.13723 c-0.6728 0 -1.0208 -0.5924 -1.0208 -1.0252 l0.0048048 -8.7544 c0 -0.5624 0.21398 -0.934 0.7008 -1.2156 l7.5708 -4.378 c0.15559 -0.089608 0.33238 -0.13723 0.512 -0.13723 c0.5504 0 1.0184 0.452 1.0184 1.0196 l0.004414 11.702 l1.844 -1.066 l0 -12.293 l-2.864 -1.6552 l-7.2428 4.1864 c-0.15359 0.092384 -0.3332 0.14559 -0.5252 0.14559 c-0.5632 0 -1.02 -0.4568 -1.02 -1.02 c0 -0.38398 0.21238 -0.7184 0.52596 -0.8924 l7.56 -4.37 c0.24359 -0.14078 0.4728 -0.21117 0.70204 -0.21117 s0.45844 0.070392 0.70204 0.21117 z M148.5592 40 c-0.6728 0 -1.0188 -0.59208 -1.0188 -1.0249 l0.0048048 -15.711 c0 -0.5632 0.4564 -1.02 1.0196 -1.02 s1.02 0.4568 1.02 1.02 l0 13.947 l2.3388 -1.352 c0.15359 -0.092384 0.3332 -0.14559 0.5252 -0.14559 c0.5632 0 1.02 0.4568 1.02 1.02 c0 0.38398 -0.21558 0.7132 -0.52596 0.89244 l-3.8716 2.2364 c-0.15559 0.089608 -0.33238 0.13723 -0.512 0.13723 z M152.45080000000002 33.2644 c-0.5632 0 -1.02 -0.4568 -1.02 -1.02 l0 -11.225 c0 -0.5632 0.4568 -1.02 1.02 -1.02 s1.02 0.4568 1.02 1.02 l0 11.225 c0 0.5632 -0.4568 1.02 -1.02 1.02 z M148.5612 19.796 l0.0020312 0.0007422 c-0.6728 0 -1.0208 -0.5924 -1.0208 -1.0252 l0.0048048 -4.2644 c0.00078124 -0.5624 0.21438 -0.934 0.70116 -1.2156 l3.6772 -2.1256 c0.15359 -0.092384 0.3332 -0.14559 0.5252 -0.14559 c0.5632 0 1.02 0.4568 1.02 1.02 c0 0.38398 -0.21238 0.7184 -0.52596 0.8924 l-3.358 1.9408 l0 2.1336 l2.3388 -1.352 c0.15359 -0.092384 0.3332 -0.14559 0.5252 -0.14559 c0.5632 0 1.02 0.4568 1.02 1.02 c0 0.38398 -0.21558 0.7132 -0.52596 0.8928 l-3.8716 2.2364 c-0.15559 0.089608 -0.33238 0.13723 -0.512 0.13723 z"/></g>
			</g>
		</svg>
	