
        <svg xmlns="http://www.w3.org/2000/svg" xmlns:xlink="http://www.w3.org/1999/xlink" version="1.1" width="3146.2865716429105" height="760.6901725431359" viewBox="0 0 3146.2865716429105 760.6901725431359">
			
			<g transform="scale(7.314328582145537) translate(10, 10)">
				<defs id="SvgjsDefs2326"/><g id="SvgjsG2327" featureKey="symbolContainer" transform="matrix(1,0,0,1,0,0)" fill="#fff"><rect width="94" height="84" rx="8"/></g><g id="SvgjsG2328" featureKey="symbolFeature-0" transform="matrix(0.7072572650459982,0,0,0.7072572650459982,11.560299331399284,6.560298656906195)" fill="#000000"><g xmlns="http://www.w3.org/2000/svg"><path d="M18.964,30.683c0.188,0,0.365,0.073,0.498,0.206c0.19,0.19,0.254,0.467,0.167,0.724l-0.111,0.329   l-0.329,0.111c-0.074,0.025-0.15,0.037-0.229,0.037c-0.188,0-0.364-0.073-0.496-0.205c-0.275-0.275-0.275-0.722,0-0.997   C18.599,30.757,18.776,30.683,18.964,30.683 M55.405,63.872l0.311,0.154c0.243,0.121,0.394,0.362,0.394,0.631   c0,0.389-0.316,0.705-0.705,0.705c-0.389,0-0.705-0.316-0.705-0.705c0-0.268,0.151-0.51,0.394-0.631L55.405,63.872 M18.964,29.583   c-0.462,0-0.924,0.176-1.276,0.529c-0.705,0.705-0.705,1.848,0,2.552c0.352,0.352,0.812,0.527,1.273,0.527   c0.196,0,0.392-0.032,0.579-0.095l11.666,11.666h17.1l6.298,6.298v11.981c-0.595,0.295-1.005,0.907-1.005,1.616   c0,0.997,0.808,1.805,1.805,1.805c0.997,0,1.805-0.808,1.805-1.805c0-0.709-0.41-1.321-1.005-1.616V50.397l-7.235-7.235h-17.1   L20.672,31.965c0.212-0.629,0.069-1.352-0.432-1.853C19.888,29.76,19.426,29.583,18.964,29.583L18.964,29.583z"/><path d="M35.138,15.362c0.389,0,0.705,0.316,0.705,0.705c0,0.268-0.151,0.51-0.394,0.63l-0.311,0.154l-0.311-0.154   c-0.243-0.121-0.394-0.362-0.394-0.63C34.433,15.678,34.75,15.362,35.138,15.362 M60.538,69.472l0.311,0.154   c0.243,0.121,0.394,0.362,0.394,0.63c0,0.389-0.316,0.705-0.705,0.705c-0.389,0-0.705-0.316-0.705-0.705   c0-0.268,0.151-0.51,0.394-0.63L60.538,69.472 M35.138,14.262c-0.997,0-1.805,0.808-1.805,1.805c0,0.709,0.41,1.321,1.005,1.616   v14.92l6.077,5.86h10.592l8.731,8.731v21.448c-0.595,0.295-1.005,0.907-1.005,1.616c0,0.997,0.808,1.805,1.805,1.805   s1.805-0.808,1.805-1.805c0-0.709-0.41-1.321-1.005-1.616V46.531l-9.669-9.669H41.061l-5.123-4.94v-14.24   c0.595-0.295,1.005-0.907,1.005-1.616C36.943,15.07,36.135,14.262,35.138,14.262L35.138,14.262z"/><path d="M80.862,31.033c0.188,0,0.365,0.073,0.498,0.206s0.206,0.31,0.206,0.498s-0.073,0.365-0.206,0.498   c-0.132,0.132-0.308,0.205-0.496,0.205c-0.078,0-0.155-0.013-0.229-0.037l-0.329-0.111l-0.111-0.329   c-0.086-0.257-0.022-0.534,0.167-0.724C80.497,31.107,80.674,31.033,80.862,31.033 M65.671,74.672l0.311,0.154   c0.243,0.121,0.394,0.362,0.394,0.63c0,0.389-0.316,0.705-0.705,0.705s-0.705-0.316-0.705-0.705c0-0.268,0.151-0.51,0.394-0.631   L65.671,74.672 M80.862,29.933c-0.462,0-0.924,0.176-1.276,0.529c-0.501,0.501-0.644,1.224-0.432,1.853l-8.516,8.516v10.8   l-5.767,5.767v16.444c-0.595,0.295-1.005,0.907-1.005,1.616c0,0.997,0.808,1.805,1.805,1.805c0.997,0,1.805-0.808,1.805-1.805   c0-0.709-0.41-1.321-1.005-1.616V58.06l5.767-5.767v-10.8l8.047-8.047c0.188,0.063,0.384,0.095,0.579,0.095   c0.461,0,0.922-0.175,1.273-0.527c0.705-0.705,0.705-1.848,0-2.552C81.786,30.11,81.324,29.933,80.862,29.933L80.862,29.933z"/><path d="M24.014,23.2c0.188,0,0.365,0.073,0.498,0.206c0.19,0.19,0.254,0.467,0.167,0.724l-0.111,0.329L24.24,24.57   c-0.074,0.025-0.15,0.037-0.228,0.037c-0.188,0-0.364-0.073-0.496-0.205c-0.133-0.133-0.206-0.31-0.206-0.498   c0-0.188,0.073-0.365,0.206-0.498S23.826,23.2,24.014,23.2 M34.065,37.483c0.188,0,0.364,0.073,0.496,0.205   c0.133,0.133,0.206,0.31,0.206,0.498s-0.073,0.365-0.206,0.498s-0.31,0.206-0.498,0.206c-0.188,0-0.365-0.073-0.498-0.206   c-0.19-0.19-0.254-0.467-0.167-0.724l0.111-0.329l0.329-0.111C33.91,37.495,33.987,37.483,34.065,37.483 M24.014,22.1   c-0.462,0-0.924,0.176-1.276,0.529c-0.705,0.705-0.705,1.848,0,2.552c0.352,0.352,0.812,0.527,1.273,0.527   c0.196,0,0.392-0.032,0.579-0.095l2.747,2.747v4.233l5.016,5.016c-0.212,0.629-0.069,1.352,0.432,1.853   c0.352,0.352,0.814,0.529,1.276,0.529c0.462,0,0.924-0.176,1.276-0.529c0.705-0.705,0.705-1.848,0-2.552   c-0.352-0.352-0.812-0.527-1.273-0.527c-0.196,0-0.392,0.032-0.579,0.095l-4.547-4.547v-4.233l-3.216-3.216   c0.212-0.629,0.069-1.352-0.432-1.853C24.938,22.276,24.476,22.1,24.014,22.1L24.014,22.1z"/><path d="M13.738,45.962c0.389,0,0.705,0.316,0.705,0.705c0,0.268-0.151,0.51-0.394,0.63l-0.311,0.154l-0.311-0.154   c-0.243-0.12-0.394-0.362-0.394-0.63C13.033,46.278,13.35,45.962,13.738,45.962 M19.665,59.083c0.188,0,0.364,0.073,0.496,0.205   c0.133,0.133,0.206,0.31,0.206,0.498c0,0.188-0.073,0.365-0.206,0.498s-0.31,0.206-0.498,0.206c-0.188,0-0.365-0.073-0.498-0.206   c-0.19-0.19-0.254-0.467-0.167-0.724l0.111-0.329l0.329-0.111C19.51,59.095,19.587,59.083,19.665,59.083 M13.738,44.862   c-0.997,0-1.805,0.808-1.805,1.805c0,0.709,0.41,1.321,1.005,1.616v5.911l5.016,5.016c-0.212,0.629-0.069,1.352,0.432,1.853   c0.352,0.352,0.814,0.529,1.276,0.529c0.462,0,0.924-0.176,1.276-0.529c0.705-0.705,0.705-1.848,0-2.552   c-0.352-0.352-0.812-0.527-1.273-0.527c-0.196,0-0.392,0.032-0.579,0.095l-4.547-4.547v-5.248c0.595-0.295,1.005-0.907,1.005-1.616   C15.543,45.67,14.735,44.862,13.738,44.862L13.738,44.862z"/><path d="M69.538,18.962c0.389,0,0.705,0.316,0.705,0.705c0,0.268-0.151,0.51-0.394,0.63l-0.311,0.154l-0.311-0.154   c-0.243-0.12-0.394-0.362-0.394-0.63C68.833,19.278,69.15,18.962,69.538,18.962 M65.938,47.672l0.311,0.154   c0.243,0.12,0.394,0.362,0.394,0.63c0,0.389-0.316,0.705-0.705,0.705c-0.389,0-0.705-0.316-0.705-0.705   c0-0.268,0.151-0.51,0.394-0.63L65.938,47.672 M69.538,17.862c-0.997,0-1.805,0.808-1.805,1.805c0,0.709,0.41,1.321,1.005,1.616   v7.048l-3.6,3.6v14.911c-0.595,0.295-1.005,0.907-1.005,1.616c0,0.997,0.808,1.805,1.805,1.805s1.805-0.808,1.805-1.805   c0-0.709-0.41-1.321-1.005-1.616V32.593l3.6-3.6v-7.711c0.595-0.295,1.005-0.907,1.005-1.616   C71.343,18.67,70.535,17.862,69.538,17.862L69.538,17.862z"/><path d="M76.738,24.362c0.389,0,0.705,0.316,0.705,0.705c0,0.268-0.151,0.51-0.394,0.63l-0.311,0.154l-0.311-0.154   c-0.243-0.121-0.394-0.362-0.394-0.63C76.033,24.678,76.35,24.362,76.738,24.362 M72.612,32.083c0.078,0,0.155,0.013,0.229,0.037   l0.329,0.111l0.111,0.329c0.086,0.257,0.022,0.534-0.167,0.724c-0.133,0.133-0.31,0.206-0.498,0.206   c-0.188,0-0.365-0.073-0.498-0.206c-0.275-0.275-0.275-0.722,0-0.997C72.248,32.155,72.424,32.083,72.612,32.083 M76.738,23.262   c-0.997,0-1.805,0.808-1.805,1.805c0,0.709,0.41,1.321,1.005,1.616v1.648l-2.747,2.747c-0.188-0.063-0.384-0.095-0.579-0.095   c-0.461,0-0.922,0.175-1.273,0.527c-0.705,0.705-0.705,1.848,0,2.552c0.352,0.352,0.814,0.529,1.276,0.529   c0.462,0,0.924-0.176,1.276-0.529c0.501-0.501,0.644-1.224,0.432-1.853l3.216-3.216v-2.311c0.595-0.295,1.005-0.907,1.005-1.616   C78.543,24.07,77.735,23.262,76.738,23.262L76.738,23.262z"/><path d="M62.338,15.362c0.389,0,0.705,0.316,0.705,0.705c0,0.268-0.151,0.51-0.394,0.63l-0.311,0.154l-0.311-0.154   c-0.243-0.121-0.394-0.362-0.394-0.63C61.633,15.678,61.95,15.362,62.338,15.362 M44.343,29.757c0.268,0,0.51,0.151,0.63,0.394   l0.154,0.311l-0.154,0.311c-0.121,0.243-0.362,0.394-0.63,0.394c-0.389,0-0.705-0.316-0.705-0.705S43.954,29.757,44.343,29.757    M62.338,14.262c-0.997,0-1.805,0.808-1.805,1.805c0,0.709,0.41,1.321,1.005,1.616v3.448l-8.531,8.531h-7.048   c-0.295-0.595-0.907-1.005-1.616-1.005c-0.997,0-1.805,0.808-1.805,1.805s0.808,1.805,1.805,1.805c0.709,0,1.321-0.41,1.616-1.005   h7.711l9.469-9.469v-4.111c0.595-0.295,1.005-0.907,1.005-1.616C64.143,15.07,63.335,14.262,62.338,14.262L62.338,14.262z"/><path d="M51.014,13.033c0.188,0,0.365,0.073,0.498,0.206c0.19,0.19,0.254,0.467,0.167,0.724l-0.111,0.329   l-0.329,0.111c-0.074,0.025-0.15,0.037-0.229,0.037c-0.188,0-0.364-0.073-0.496-0.205c-0.133-0.133-0.206-0.31-0.206-0.498   s0.073-0.365,0.206-0.498S50.826,13.033,51.014,13.033 M44.343,24.357c0.268,0,0.51,0.151,0.63,0.394l0.154,0.311l-0.154,0.311   c-0.121,0.243-0.362,0.394-0.63,0.394c-0.389,0-0.705-0.316-0.705-0.705S43.954,24.357,44.343,24.357 M51.014,11.933   c-0.462,0-0.924,0.176-1.276,0.529c-0.705,0.705-0.705,1.848,0,2.552c0.352,0.352,0.812,0.527,1.273,0.527   c0.196,0,0.392-0.032,0.579-0.095l4.216,4.216l-4.6,4.6h-5.248c-0.295-0.595-0.907-1.005-1.616-1.005   c-0.997,0-1.805,0.808-1.805,1.805s0.808,1.805,1.805,1.805c0.709,0,1.321-0.41,1.616-1.005h5.911l6.2-6.2l-5.347-5.347   c0.212-0.629,0.069-1.352-0.432-1.853C51.938,12.11,51.476,11.933,51.014,11.933L51.014,11.933z"/><path d="M42.014,13.033c0.188,0,0.365,0.073,0.498,0.206c0.19,0.19,0.254,0.467,0.167,0.724l-0.111,0.329   l-0.329,0.111c-0.074,0.025-0.15,0.037-0.229,0.037c-0.188,0-0.364-0.073-0.496-0.205c-0.275-0.275-0.275-0.722,0-0.997   C41.649,13.107,41.826,13.033,42.014,13.033 M46.665,17.683c0.188,0,0.364,0.073,0.496,0.205c0.275,0.275,0.275,0.722,0,0.997   c-0.133,0.133-0.31,0.206-0.498,0.206s-0.365-0.073-0.498-0.206c-0.19-0.19-0.254-0.467-0.167-0.724l0.111-0.329l0.329-0.111   C46.51,17.695,46.587,17.683,46.665,17.683 M42.014,11.933c-0.462,0-0.924,0.176-1.276,0.529c-0.705,0.705-0.705,1.848,0,2.552   c0.352,0.352,0.812,0.527,1.273,0.527c0.196,0,0.392-0.032,0.579-0.095l2.363,2.363c-0.212,0.629-0.069,1.352,0.432,1.853   c0.352,0.352,0.814,0.529,1.276,0.529s0.924-0.176,1.276-0.529c0.705-0.705,0.705-1.848,0-2.552   c-0.352-0.352-0.812-0.527-1.273-0.527c-0.196,0-0.392,0.032-0.579,0.095l-2.363-2.363c0.212-0.629,0.069-1.352-0.432-1.853   C42.938,12.11,42.476,11.933,42.014,11.933L42.014,11.933z"/><path d="M61.062,29.233c0.188,0,0.365,0.073,0.498,0.206c0.275,0.275,0.275,0.722,0,0.997   c-0.132,0.132-0.308,0.205-0.496,0.205c-0.078,0-0.155-0.013-0.229-0.037l-0.329-0.111l-0.111-0.329   c-0.086-0.257-0.022-0.534,0.167-0.724C60.697,29.307,60.874,29.233,61.062,29.233 M61.065,37.483c0.188,0,0.364,0.073,0.496,0.205   c0.275,0.275,0.275,0.722,0,0.997c-0.133,0.133-0.31,0.206-0.498,0.206c-0.188,0-0.365-0.073-0.498-0.206   c-0.19-0.19-0.254-0.467-0.167-0.724l0.111-0.329l0.329-0.111C60.91,37.495,60.987,37.483,61.065,37.483 M61.062,28.133   c-0.462,0-0.924,0.176-1.276,0.529c-0.501,0.501-0.644,1.224-0.432,1.853l-1.416,1.416v4.263l1.416,1.416   c-0.212,0.629-0.069,1.352,0.432,1.853c0.352,0.352,0.814,0.529,1.276,0.529s0.924-0.176,1.276-0.529   c0.705-0.705,0.705-1.848,0-2.552c-0.352-0.352-0.813-0.527-1.273-0.527c-0.196,0-0.392,0.032-0.579,0.095l-0.947-0.947v-2.937   l0.947-0.947c0.188,0.063,0.384,0.095,0.579,0.095c0.461,0,0.922-0.175,1.273-0.527c0.705-0.705,0.705-1.848,0-2.552   C61.986,28.31,61.524,28.133,61.062,28.133L61.062,28.133z"/><path d="M16.814,38.233c0.188,0,0.365,0.073,0.498,0.206c0.19,0.19,0.254,0.467,0.167,0.724l-0.111,0.329   l-0.329,0.111c-0.074,0.025-0.15,0.037-0.229,0.037c-0.188,0-0.364-0.073-0.496-0.205c-0.133-0.133-0.206-0.31-0.206-0.498   s0.073-0.365,0.206-0.498S16.626,38.233,16.814,38.233 M44.333,49.557c0.389,0,0.705,0.316,0.705,0.705   c0,0.389-0.316,0.705-0.705,0.705c-0.268,0-0.51-0.151-0.63-0.394l-0.154-0.311l0.154-0.311   C43.823,49.708,44.065,49.557,44.333,49.557 M16.814,37.133c-0.462,0-0.924,0.176-1.276,0.529c-0.705,0.705-0.705,1.848,0,2.552   c0.352,0.352,0.812,0.527,1.273,0.527c0.196,0,0.392-0.032,0.579-0.095l10.416,10.416h14.911c0.295,0.595,0.907,1.005,1.616,1.005   c0.997,0,1.805-0.808,1.805-1.805s-0.808-1.805-1.805-1.805c-0.709,0-1.321,0.41-1.616,1.005H28.469l-9.947-9.947   c0.212-0.629,0.069-1.352-0.432-1.853C17.738,37.31,17.276,37.133,16.814,37.133L16.814,37.133z"/><path d="M84.462,38.233c0.188,0,0.365,0.073,0.498,0.206c0.275,0.275,0.275,0.722,0,0.997   c-0.132,0.132-0.308,0.205-0.496,0.205c-0.078,0-0.155-0.013-0.229-0.037l-0.329-0.111l-0.111-0.329   c-0.086-0.257-0.022-0.534,0.167-0.724C84.097,38.307,84.274,38.233,84.462,38.233 M77.171,49.472l0.311,0.154   c0.243,0.121,0.394,0.362,0.394,0.631c0,0.389-0.316,0.705-0.705,0.705s-0.705-0.316-0.705-0.705c0-0.268,0.151-0.51,0.394-0.631   L77.171,49.472 M84.462,37.133c-0.462,0-0.924,0.176-1.276,0.529c-0.501,0.501-0.644,1.224-0.432,1.853l-6.382,6.382v2.744   c-0.595,0.295-1.005,0.907-1.005,1.616c0,0.997,0.808,1.805,1.805,1.805c0.997,0,1.805-0.808,1.805-1.805   c0-0.709-0.41-1.321-1.005-1.616V46.56l5.914-5.914c0.188,0.063,0.384,0.095,0.579,0.095c0.461,0,0.922-0.175,1.273-0.527   c0.705-0.705,0.705-1.848,0-2.552C85.386,37.31,84.924,37.133,84.462,37.133L84.462,37.133z"/><path d="M49.738,54.962c0.389,0,0.705,0.316,0.705,0.705c0,0.268-0.151,0.51-0.394,0.63l-0.311,0.154l-0.311-0.154   c-0.243-0.121-0.394-0.362-0.394-0.63C49.033,55.278,49.35,54.962,49.738,54.962 M49.733,85.557c0.389,0,0.705,0.316,0.705,0.705   c0,0.389-0.316,0.705-0.705,0.705c-0.268,0-0.51-0.151-0.63-0.394l-0.154-0.311l0.154-0.311   C49.223,85.708,49.465,85.557,49.733,85.557 M49.738,53.862c-0.997,0-1.805,0.808-1.805,1.805c0,0.709,0.41,1.321,1.005,1.616   v21.448l-8.331,8.331h7.511c0.295,0.595,0.907,1.005,1.616,1.005c0.997,0,1.805-0.808,1.805-1.805s-0.808-1.805-1.805-1.805   c-0.709,0-1.321,0.41-1.616,1.005h-3.648l6.069-6.069V57.282c0.595-0.295,1.005-0.907,1.005-1.616   C51.543,54.67,50.735,53.862,49.738,53.862L49.738,53.862z"/><path d="M86.262,45.433c0.188,0,0.365,0.073,0.498,0.206c0.275,0.275,0.275,0.722,0,0.997   c-0.132,0.132-0.308,0.205-0.496,0.205c-0.078,0-0.155-0.013-0.229-0.037l-0.329-0.111l-0.111-0.329   c-0.086-0.257-0.022-0.534,0.167-0.724C85.897,45.507,86.074,45.433,86.262,45.433 M71.405,78.272l0.311,0.154   c0.243,0.121,0.394,0.362,0.394,0.631c0,0.389-0.316,0.705-0.705,0.705S70.7,79.446,70.7,79.057c0-0.268,0.151-0.51,0.394-0.631   L71.405,78.272 M86.262,44.333c-0.462,0-0.924,0.176-1.276,0.529c-0.501,0.501-0.644,1.224-0.432,1.853l-1.416,1.416v6.731h-6.731   l-5.802,5.802v16.778c-0.595,0.295-1.005,0.907-1.005,1.616c0,0.997,0.808,1.805,1.805,1.805c0.997,0,1.805-0.808,1.805-1.805   c0-0.709-0.41-1.321-1.005-1.616V61.327l4.865-4.865h7.669v-7.669l0.947-0.947c0.188,0.063,0.384,0.095,0.579,0.095   c0.461,0,0.922-0.175,1.273-0.527c0.705-0.705,0.705-1.848,0-2.552C87.186,44.51,86.724,44.333,86.262,44.333L86.262,44.333z"/><path d="M83.933,60.357c0.389,0,0.705,0.316,0.705,0.705c0,0.389-0.316,0.705-0.705,0.705   c-0.268,0-0.51-0.151-0.63-0.394l-0.154-0.311l0.154-0.311C83.423,60.508,83.665,60.357,83.933,60.357 M78.865,71.883   c0.188,0,0.364,0.073,0.496,0.205c0.275,0.275,0.275,0.722,0,0.997c-0.133,0.133-0.31,0.206-0.498,0.206   c-0.188,0-0.365-0.073-0.498-0.206c-0.19-0.19-0.254-0.467-0.167-0.724l0.111-0.329l0.329-0.111   C78.71,71.895,78.787,71.883,78.865,71.883 M83.933,59.257c-0.709,0-1.321,0.41-1.616,1.005h-4.111l-2.469,2.469v7.863l1.416,1.416   c-0.212,0.629-0.069,1.352,0.432,1.853c0.352,0.352,0.814,0.529,1.276,0.529c0.462,0,0.924-0.176,1.276-0.529   c0.705-0.705,0.705-1.848,0-2.552c-0.352-0.352-0.813-0.527-1.273-0.527c-0.196,0-0.392,0.032-0.579,0.095l-0.947-0.947v-6.537   l1.531-1.531h3.448c0.295,0.595,0.907,1.005,1.616,1.005c0.997,0,1.805-0.808,1.805-1.805S84.93,59.257,83.933,59.257   L83.933,59.257z"/><path d="M64.665,82.483c0.188,0,0.364,0.073,0.496,0.205c0.133,0.133,0.206,0.31,0.206,0.498   s-0.073,0.365-0.206,0.498s-0.31,0.206-0.498,0.206c-0.188,0-0.365-0.073-0.498-0.206c-0.19-0.19-0.254-0.467-0.167-0.724   l0.111-0.329l0.329-0.111C64.51,82.495,64.587,82.483,64.665,82.483 M55.138,85.472l0.311,0.154   c0.243,0.121,0.394,0.362,0.394,0.63c0,0.389-0.316,0.705-0.705,0.705c-0.389,0-0.705-0.316-0.705-0.705   c0-0.268,0.151-0.51,0.394-0.63L55.138,85.472 M54.338,71.731v12.911c-0.595,0.295-1.005,0.907-1.005,1.616   c0,0.997,0.808,1.805,1.805,1.805s1.805-0.808,1.805-1.805c0-0.709-0.41-1.321-1.005-1.616v-9.048l7.016,7.016   c-0.212,0.629-0.069,1.352,0.432,1.853c0.352,0.352,0.814,0.529,1.276,0.529c0.462,0,0.924-0.176,1.276-0.529   c0.705-0.705,0.705-1.848,0-2.552c-0.352-0.352-0.812-0.527-1.273-0.527c-0.196,0-0.392,0.032-0.579,0.095L54.338,71.731   L54.338,71.731z"/><path d="M44.338,56.762c0.389,0,0.705,0.316,0.705,0.705c0,0.268-0.151,0.51-0.394,0.63l-0.311,0.154l-0.311-0.154   c-0.243-0.121-0.394-0.362-0.394-0.63C43.633,57.078,43.95,56.762,44.338,56.762 M38.412,82.483c0.078,0,0.155,0.013,0.229,0.037   l0.329,0.111l0.111,0.329c0.086,0.257,0.022,0.534-0.167,0.724c-0.133,0.133-0.31,0.206-0.498,0.206   c-0.188,0-0.365-0.073-0.498-0.206s-0.206-0.31-0.206-0.498s0.073-0.365,0.206-0.498C38.048,82.555,38.224,82.483,38.412,82.483    M44.338,55.662c-0.997,0-1.805,0.808-1.805,1.805c0,0.709,0.41,1.321,1.005,1.616v17.848l-4.547,4.547   c-0.188-0.063-0.384-0.095-0.579-0.095c-0.461,0-0.922,0.175-1.273,0.527c-0.705,0.705-0.705,1.848,0,2.552   c0.352,0.352,0.814,0.529,1.276,0.529c0.462,0,0.924-0.176,1.276-0.529c0.501-0.501,0.644-1.224,0.432-1.853l5.016-5.016V59.082   c0.595-0.295,1.005-0.907,1.005-1.616C46.143,56.47,45.335,55.662,44.338,55.662L44.338,55.662z"/><path d="M20.414,50.833c0.188,0,0.365,0.073,0.498,0.206c0.19,0.19,0.254,0.467,0.167,0.724l-0.111,0.329   l-0.329,0.111c-0.074,0.025-0.15,0.037-0.229,0.037c-0.188,0-0.364-0.073-0.496-0.205c-0.275-0.275-0.275-0.722,0-0.997   C20.049,50.907,20.226,50.833,20.414,50.833 M37.665,68.083c0.188,0,0.364,0.073,0.496,0.205c0.275,0.275,0.275,0.722,0,0.997   c-0.133,0.133-0.31,0.206-0.498,0.206s-0.365-0.073-0.498-0.206c-0.19-0.19-0.254-0.467-0.167-0.724l0.111-0.329l0.329-0.111   C37.51,68.095,37.587,68.083,37.665,68.083 M20.414,49.733c-0.462,0-0.924,0.176-1.276,0.529c-0.705,0.705-0.705,1.848,0,2.552   c0.352,0.352,0.812,0.527,1.273,0.527c0.196,0,0.392-0.032,0.579-0.095l14.963,14.963c-0.212,0.629-0.069,1.352,0.432,1.853   c0.352,0.352,0.814,0.529,1.276,0.529c0.462,0,0.924-0.176,1.276-0.529c0.705-0.705,0.705-1.848,0-2.552   c-0.352-0.352-0.812-0.527-1.273-0.527c-0.196,0-0.392,0.032-0.579,0.095L22.122,52.115c0.212-0.629,0.069-1.352-0.432-1.853   C21.338,49.91,20.876,49.733,20.414,49.733L20.414,49.733z"/><path d="M33.543,54.957c0.268,0,0.51,0.151,0.63,0.394l0.154,0.311l-0.154,0.311   c-0.121,0.243-0.362,0.394-0.63,0.394c-0.389,0-0.705-0.316-0.705-0.705C32.838,55.273,33.154,54.957,33.543,54.957 M38.938,60.272   l0.311,0.154c0.243,0.121,0.394,0.362,0.394,0.63c0,0.389-0.316,0.705-0.705,0.705c-0.389,0-0.705-0.316-0.705-0.705   c0-0.268,0.151-0.51,0.394-0.63L38.938,60.272 M33.543,53.857c-0.997,0-1.805,0.808-1.805,1.805s0.808,1.805,1.805,1.805   c0.709,0,1.321-0.41,1.616-1.005h2.979v2.979c-0.595,0.295-1.005,0.907-1.005,1.616c0,0.997,0.808,1.805,1.805,1.805   s1.805-0.808,1.805-1.805c0-0.709-0.41-1.321-1.005-1.616v-4.579h-4.579C34.863,54.267,34.252,53.857,33.543,53.857L33.543,53.857z   "/><path d="M25.814,65.233c0.188,0,0.365,0.073,0.498,0.206c0.19,0.19,0.254,0.467,0.167,0.724l-0.111,0.329   l-0.329,0.111c-0.074,0.025-0.15,0.037-0.229,0.037c-0.188,0-0.364-0.073-0.496-0.205c-0.133-0.133-0.206-0.31-0.206-0.498   c0-0.188,0.073-0.365,0.206-0.498S25.626,65.233,25.814,65.233 M33.012,80.683c0.078,0,0.155,0.013,0.229,0.037l0.329,0.111   l0.111,0.329c0.086,0.257,0.022,0.534-0.167,0.724c-0.133,0.133-0.31,0.206-0.498,0.206s-0.365-0.073-0.498-0.206   s-0.206-0.31-0.206-0.498c0-0.188,0.073-0.365,0.206-0.498C32.648,80.755,32.824,80.683,33.012,80.683 M25.814,64.133   c-0.462,0-0.924,0.176-1.276,0.529c-0.705,0.705-0.705,1.848,0,2.552c0.352,0.352,0.812,0.527,1.273,0.527   c0.196,0,0.392-0.032,0.579-0.095l9.616,9.616l-2.416,2.416c-0.188-0.063-0.384-0.095-0.579-0.095   c-0.461,0-0.922,0.175-1.273,0.527c-0.705,0.705-0.705,1.848,0,2.552c0.352,0.352,0.814,0.529,1.276,0.529   c0.462,0,0.924-0.176,1.276-0.529c0.501-0.501,0.644-1.224,0.432-1.853l3.547-3.547L27.522,66.515   c0.212-0.629,0.069-1.352-0.432-1.853C26.738,64.31,26.276,64.133,25.814,64.133L25.814,64.133z"/><path d="M18.614,67.033c0.188,0,0.365,0.073,0.498,0.206c0.19,0.19,0.254,0.467,0.167,0.724l-0.111,0.329   l-0.329,0.111c-0.074,0.025-0.15,0.037-0.229,0.037c-0.188,0-0.364-0.073-0.496-0.205c-0.275-0.275-0.275-0.722,0-0.997   C18.249,67.107,18.426,67.033,18.614,67.033 M26.865,75.283c0.188,0,0.364,0.073,0.496,0.205c0.275,0.275,0.275,0.722,0,0.997   c-0.133,0.133-0.31,0.206-0.498,0.206c-0.188,0-0.365-0.073-0.498-0.206c-0.19-0.19-0.254-0.467-0.167-0.724l0.111-0.329   l0.329-0.111C26.71,75.295,26.787,75.283,26.865,75.283 M18.614,65.933c-0.462,0-0.924,0.176-1.276,0.529   c-0.705,0.705-0.705,1.848,0,2.552c0.352,0.352,0.812,0.527,1.273,0.527c0.196,0,0.392-0.032,0.579-0.095l5.963,5.963   c-0.212,0.629-0.069,1.352,0.432,1.853c0.352,0.352,0.814,0.529,1.276,0.529c0.462,0,0.924-0.176,1.276-0.529   c0.705-0.705,0.705-1.848,0-2.552c-0.352-0.352-0.812-0.527-1.273-0.527c-0.196,0-0.392,0.032-0.579,0.095l-5.963-5.963   c0.212-0.629,0.069-1.352-0.432-1.853C19.538,66.11,19.076,65.933,18.614,65.933L18.614,65.933z"/></g></g><g id="SvgjsG2329" featureKey="nameFeature-0" transform="matrix(1.942618317402874,0,0,1.942618317402874,112.01852889014528,-7.407988219575024)" fill="#fff"><path d="M25.338 40 c-0.1732 0 -0.34879 -0.044412 -0.50916 -0.13723 l-3.688 -2.1352 c-0.4868 -0.2816 -0.7012 -0.6532 -0.7012 -1.2156 l0 -15.494 c0 -0.5632 0.4568 -1.02 1.02 -1.02 s1.02 0.4568 1.02 1.02 l0 15.126 l1.844 1.066 l0 -22.339 l-2.864 -1.6552 l-7.2428 4.1864 c-0.1532 0.092384 -0.33281 0.14559 -0.5248 0.14559 c-0.5632 0 -1.02 -0.4568 -1.02 -1.02 c0 -0.38398 0.21238 -0.7184 0.52596 -0.8924 l7.56 -4.37 c0.24359 -0.14078 0.4728 -0.21117 0.70204 -0.21117 s0.45844 0.070392 0.70204 0.21117 l3.5008 2.0236 c0.4872 0.2816 0.7016 0.6532 0.7016 1.2156 l-0.004414 24.474 c0 0.5504 -0.454 1.0204 -1.022 1.0204 z M5.9236 39.99957032 c-0.19199 0 -0.37199 -0.052032 -0.5252 -0.14441 l-3.6772 -2.1256 c-0.4868 -0.2816 -0.7012 -0.6532 -0.7012 -1.2156 l0 -22.007 c0 -0.5624 0.21442 -0.934 0.7012 -1.2156 l3.6772 -2.1256 c0.15359 -0.092384 0.3332 -0.14559 0.5252 -0.14559 c0.5632 0 1.02 0.4568 1.02 1.02 c0 0.38398 -0.21238 0.7184 -0.52596 0.8924 l-3.358 1.9408 l0 21.273 l3.358 1.9408 c0.31359 0.17398 0.52596 0.5084 0.52596 0.8924 c0 0.5632 -0.4568 1.02 -1.02 1.02 z M9.8072 37.7556 c-0.5632 0 -1.0192 -0.45724 -1.0192 -1.0204 l0 -16.192 l-1.844 1.066 l0 12.882 c0 0.5632 -0.4568 1.02 -1.02 1.02 s-1.02 -0.4568 -1.02 -1.02 l0 -13.248 c0 -0.5624 0.21442 -0.934 0.7012 -1.2156 l3.6868 -2.1332 c0.15559 -0.089608 0.33238 -0.13723 0.512 -0.13723 c0.6728 0 1.0188 0.5872 1.0188 1.02 l0.004414 17.96 c0 0.5632 -0.4568 1.02 -1.02 1.02 z M13.686 40.0011328 l0.003125 0.00082032 c-0.5508 0 -1.0212 -0.4568 -1.0212 -1.0252 l0.023594 -17.603 c0 -0.5628 0.4564 -1.0188 1.0192 -1.0188 c0.5632 0 1.02 0.4568 1.02 1.0212 l-0.017188 15.836 l1.842 -1.0648 l0 -17.15 c0 -0.5624 0.21442 -0.934 0.7016 -1.2156 l3.6772 -2.1256 c0.15359 -0.092384 0.3332 -0.14559 0.5252 -0.14559 c0.5632 0 1.02 0.4568 1.02 1.02 c0 0.38398 -0.21238 0.7184 -0.52596 0.8924 l-3.358 1.9408 l0 17.15 c0 0.5624 -0.21398 0.93436 -0.70116 1.2156 l-3.6964 2.1348 c-0.15559 0.089608 -0.33238 0.13723 -0.512 0.13723 z M5.9276 17.551 c-0.5632 0 -1.02 -0.4568 -1.02 -1.02 c0 -0.38398 0.21238 -0.7184 0.52596 -0.8924 l7.7364 -4.472 c0.15359 -0.092384 0.3332 -0.14559 0.5252 -0.14559 c0.5632 0 1.02 0.4568 1.02 1.02 c0 0.38398 -0.21238 0.7184 -0.52596 0.8924 l-7.7364 4.472 c-0.15359 0.092384 -0.3332 0.14559 -0.5252 0.14559 z M29.439200000000003 40 c-0.6728 0 -1.0188 -0.59208 -1.0188 -1.0249 l0.0048048 -15.711 c0 -0.5632 0.4564 -1.02 1.0196 -1.02 s1.02 0.4568 1.02 1.02 l0 13.947 l2.3388 -1.352 c0.15359 -0.092384 0.3332 -0.14559 0.5252 -0.14559 c0.5632 0 1.02 0.4568 1.02 1.02 c0 0.38398 -0.21558 0.7132 -0.52596 0.89244 l-3.8716 2.2364 c-0.15559 0.089608 -0.33238 0.13723 -0.512 0.13723 z M33.3308 33.2644 c-0.5632 0 -1.02 -0.4568 -1.02 -1.02 l0 -11.225 c0 -0.5632 0.4568 -1.02 1.02 -1.02 s1.02 0.4568 1.02 1.02 l0 11.225 c0 0.5632 -0.4568 1.02 -1.02 1.02 z M29.441200000000002 19.796 l0.0020312 0.0007422 c-0.6728 0 -1.0208 -0.5924 -1.0208 -1.0252 l0.0048048 -4.2644 c0.00078124 -0.5624 0.21438 -0.934 0.70116 -1.2156 l3.6772 -2.1256 c0.15359 -0.092384 0.3332 -0.14559 0.5252 -0.14559 c0.5632 0 1.02 0.4568 1.02 1.02 c0 0.38398 -0.21238 0.7184 -0.52596 0.8924 l-3.358 1.9408 l0 2.1336 l2.3388 -1.352 c0.15359 -0.092384 0.3332 -0.14559 0.5252 -0.14559 c0.5632 0 1.02 0.4568 1.02 1.02 c0 0.38398 -0.21558 0.7132 -0.52596 0.8928 l-3.8716 2.2364 c-0.15559 0.089608 -0.33238 0.13723 -0.512 0.13723 z M41.2888 35.7148 l0.0023438 0.00035156 c0.5632 0 1.02 0.4568 1.02 1.02 c0 0.38398 -0.21558 0.7132 -0.52596 0.8928 l-3.8716 2.2364 c-0.15559 0.089608 -0.33238 0.13723 -0.512 0.13723 c-0.5508 0 -1.0212 -0.4568 -1.0212 -1.0252 l0.0048048 -24.469 c0 -0.5624 0.21442 -0.934 0.7012 -1.2156 l3.6772 -2.1256 c0.15359 -0.092384 0.3332 -0.14559 0.5252 -0.14559 c0.5632 0 1.02 0.4568 1.02 1.02 c0 0.38398 -0.21238 0.7184 -0.52596 0.8924 l-3.358 1.9408 l0 22.339 l2.3388 -1.352 c0.15359 -0.092384 0.3332 -0.14559 0.5252 -0.14559 z M41.291199999999996 15.510000000000002 c0.5632 0 1.02 0.4568 1.02 1.02 l0 15.715 c0 0.5632 -0.4568 1.02 -1.02 1.02 s-1.02 -0.4568 -1.02 -1.02 l0 -15.715 c0 -0.5632 0.4568 -1.02 1.02 -1.02 z M49.244 39.963594 l0.0045312 0.0012109 c-0.22922 0 -0.45844 -0.070392 -0.70204 -0.21117 l-3.5008 -2.0236 c-0.4868 -0.2816 -0.7012 -0.6532 -0.7012 -1.2156 l0 -13.027 c0 -0.5624 0.21442 -0.934 0.7012 -1.2156 l3.6772 -2.1256 c0.15359 -0.092384 0.3332 -0.14559 0.5252 -0.14559 c0.5632 0 1.02 0.4568 1.02 1.02 c0 0.38398 -0.21238 0.7184 -0.52596 0.8924 l-3.358 1.9408 l0 12.293 l2.864 1.6556 l6.7476 -3.9004 l0 -11.114 l-5.7276 3.3108 l0 6.6236 l1.844 -1.066 l0 -3.9016 c0 -0.5632 0.4568 -1.02 1.02 -1.02 s1.02 0.4568 1.02 1.02 l0 4.2684 c0 0.5624 -0.21442 0.93436 -0.7016 1.2156 l-3.6964 2.1348 c-0.15559 0.089608 -0.33238 0.13723 -0.512 0.13723 c-0.6728 0 -1.0208 -0.5924 -1.0208 -1.0252 l0.0048048 -8.7544 c0 -0.5624 0.21398 -0.934 0.7008 -1.2156 l7.5708 -4.378 c0.15559 -0.089608 0.33238 -0.13723 0.512 -0.13723 c0.5504 0 1.0184 0.452 1.0184 1.0196 l0.004414 13.248 c0 0.5624 -0.2148 0.934 -0.702 1.2116 l-7.3844 4.2724 c-0.24359 0.14078 -0.4728 0.21117 -0.70204 0.21117 z M78.952 34.2684 c0 0.5624 -0.21356 0.9348 -0.70076 1.2124 l-7.3844 4.2724 c-0.24359 0.14078 -0.4728 0.21117 -0.70204 0.21117 s-0.45844 -0.070392 -0.70204 -0.21117 l-3.5008 -2.0236 c-0.4868 -0.2816 -0.7012 -0.6532 -0.7012 -1.2156 l0 -22.007 c0 -0.5624 0.21442 -0.934 0.7012 -1.2156 l3.6772 -2.1256 c0.15359 -0.092384 0.3332 -0.14559 0.5252 -0.14559 c0.5632 0 1.02 0.4568 1.02 1.02 c0 0.38398 -0.21238 0.7184 -0.52596 0.8924 l-3.358 1.9408 l0 21.273 l2.864 1.6556 l6.7476 -3.9004 l0 -3.3128 l-1.844 -1.066 l0 2.7224 c0 0.5632 -0.4568 1.02 -1.02 1.02 s-1.0192 -0.4568 -1.0192 -1.02 l-0.0051952 -4.4892 c0 -0.35078 0.18121 -0.692 0.5052 -0.8816 c0.16602 -0.096016 0.34281 -0.13961 0.5144 -0.13961 c0.18238 0 0.35879 0.04922 0.5104 0.13684 l3.6972 2.1344 c0.4868 0.2816 0.7012 0.6532 0.7012 1.2156 l0 4.0468 z M69.14479999999999 16.752 c0 -0.5624 0.21394 -0.93476 0.70076 -1.2164 l7.3844 -4.2684 c0.24359 -0.14078 0.4728 -0.21117 0.70204 -0.21117 s0.45844 0.070392 0.70204 0.21117 l3.5008 2.0236 c0.4872 0.2816 0.7016 0.6532 0.7016 1.2156 l0 8.5368 c0 0.5624 -0.21442 0.934 -0.7012 1.2156 l-3.6772 2.1256 c-0.15359 0.092384 -0.3332 0.14559 -0.5252 0.14559 c-0.5632 0 -1.02 -0.4568 -1.02 -1.02 c0 -0.38398 0.21238 -0.7184 0.52596 -0.8924 l3.358 -1.9408 l0 -7.8028 l-2.864 -1.6556 l-6.748 3.9004 l0 17.372 c0 0.5632 -0.4568 1.02 -1.02 1.02 s-1.02 -0.4568 -1.02 -1.02 l0 -17.738 z M73.55439999999999 22.372 l3.3576 -1.9416 l0 -2.1336 l-2.3388 1.352 c-0.1532 0.092384 -0.33281 0.14559 -0.5248 0.14559 c-0.5632 0 -1.02 -0.4568 -1.02 -1.02 c0 -0.38398 0.21558 -0.71276 0.52596 -0.89276 l3.8632 -2.236 c0.16078 -0.092812 0.33598 -0.1368 0.50916 -0.1368 c0.35238 0 0.6952 0.18281 0.884 0.51 c0.092812 0.16078 0.1368 0.33598 0.1368 0.50916 l0.0048048 4.2696 c0.00039062 0.5624 -0.2148 0.934 -0.702 1.2156 l-3.6772 2.1256 c-0.1532 0.092384 -0.33281 0.14559 -0.5248 0.14559 c-0.5632 0 -1.02 -0.4568 -1.02 -1.02 c0 -0.38398 0.21238 -0.7184 0.52596 -0.8924 z M81.816 26.734 c0.5632 0 1.02 0.4564 1.02 1.0196 l0 8.7584 c0 0.5624 -0.21442 0.934 -0.7016 1.2156 l-3.6772 2.1256 c-0.15359 0.092384 -0.3332 0.14559 -0.5252 0.14559 c-0.5632 0 -1.02 -0.4568 -1.02 -1.02 c0 -0.38398 0.21238 -0.7184 0.52596 -0.8924 l3.358 -1.9408 l0 -8.3916 c0 -0.5632 0.4568 -1.02 1.02 -1.02 z M89.76400000000001 39.963594 c-0.22922 0 -0.4576 -0.069608 -0.70116 -0.21039 l-3.5008 -2.0236 c-0.4868 -0.2816 -0.7012 -0.6532 -0.7012 -1.2156 l0 -13.027 c0 -0.5624 0.21442 -0.934 0.7012 -1.2156 l3.6772 -2.1256 c0.15359 -0.092384 0.3332 -0.14559 0.5252 -0.14559 c0.5632 0 1.02 0.4568 1.02 1.02 c0 0.38398 -0.21238 0.7184 -0.52596 0.8924 l-3.358 1.9408 l0 12.293 l2.864 1.6556 l6.7476 -3.9004 l0 -3.9016 c0 -0.5632 0.4568 -1.02 1.02 -1.02 s1.02 0.4568 1.02 1.02 l0 4.2684 c0 0.5624 -0.21442 0.934 -0.7016 1.2116 l-7.3844 4.2724 c-0.24359 0.14078 -0.4728 0.21117 -0.70204 0.21117 z M89.7592 35.5116 l0.0024609 -0.00042968 c-0.6728 0 -1.0208 -0.5924 -1.0208 -1.0252 l0.0048048 -8.7544 c0 -0.5624 0.21398 -0.934 0.70116 -1.2156 l7.5708 -4.378 c0.15559 -0.089608 0.33238 -0.13723 0.512 -0.13723 c0.5504 0 1.0184 0.452 1.0184 1.0196 l0.004414 4.268 c0.00039062 0.5624 -0.2148 0.934 -0.702 1.2156 l-3.6772 2.1256 c-0.1532 0.092384 -0.33281 0.14559 -0.5248 0.14559 c-0.5632 0 -1.02 -0.4568 -1.02 -1.02 c0 -0.38398 0.21238 -0.7184 0.52596 -0.8924 l3.358 -1.9408 l0 -2.1336 l-5.7276 3.3108 l0 6.6236 l2.3388 -1.352 c0.15359 -0.092384 0.3332 -0.14559 0.5252 -0.14559 c0.5632 0 1.02 0.4568 1.02 1.02 c0 0.38398 -0.2152 0.7132 -0.52596 0.8928 l-3.8716 2.2364 c-0.15559 0.089608 -0.33238 0.13723 -0.512 0.13723 z M105.284 39.963594 l0.0037109 0.0011719 c-0.22922 0 -0.45844 -0.070392 -0.70204 -0.21117 l-3.5008 -2.0236 c-0.4868 -0.2816 -0.7012 -0.6532 -0.7012 -1.2156 l0 -8.5368 c0 -0.5624 0.21442 -0.934 0.7012 -1.2156 l7.0664 -4.0844 l0 -8.17 c0 -0.5624 0.21442 -0.934 0.7012 -1.2156 l3.6772 -2.1256 c0.15359 -0.092384 0.3332 -0.14559 0.5252 -0.14559 c0.5632 0 1.02 0.4568 1.02 1.02 c0 0.38398 -0.21238 0.7184 -0.52596 0.8924 l-3.358 1.9408 l0 8.17 c0 0.5624 -0.21442 0.934 -0.7012 1.2156 l-7.0664 4.0844 l0 7.8028 l2.864 1.6556 l6.7476 -3.9004 l0 -2.1336 l-6.2416 3.6064 c-0.15559 0.089608 -0.33238 0.13723 -0.512 0.13723 c-0.6728 0 -1.0208 -0.5924 -1.0208 -1.0252 l0.0048048 -4.2644 c0.00078124 -0.5624 0.21438 -0.934 0.70116 -1.2156 l3.6772 -2.1256 c0.15359 -0.092384 0.3332 -0.14559 0.5252 -0.14559 c0.5632 0 1.02 0.4568 1.02 1.02 c0 0.38398 -0.21238 0.7184 -0.52596 0.8924 l-3.358 1.9408 l0 2.1336 l6.2324 -3.6044 c0.15559 -0.089608 0.33238 -0.13723 0.512 -0.13723 c0.5504 0 1.0184 0.452 1.0184 1.0196 l0.004414 4.268 c0.00039062 0.5624 -0.2148 0.934 -0.7016 1.2116 l-7.3844 4.2724 c-0.24359 0.14078 -0.4728 0.21117 -0.70204 0.21117 z M113.055 40.0011719 c-0.5632 0 -1.0188 -0.4576 -1.0188 -1.0208 c0 -0.38398 0.21238 -0.7184 0.52596 -0.8924 l3.358 -1.9408 l0 -20.094 l-1.844 1.066 l0 8.3916 c0 0.5632 -0.4568 1.02 -1.02 1.02 s-1.02 -0.4568 -1.02 -1.02 l0 -8.7584 c0 -0.5624 0.21442 -0.934 0.7012 -1.2156 l3.6868 -2.1332 c0.15559 -0.089608 0.33238 -0.13723 0.512 -0.13723 c0.5504 0 1.0184 0.452 1.0184 1.0196 l0.004414 22.228 c0 0.5624 -0.21442 0.934 -0.7016 1.2156 l-3.6772 2.1256 c-0.15359 0.092384 -0.3332 0.14559 -0.5252 0.14559 z M120.9992 40 c-0.6728 0 -1.0188 -0.59208 -1.0188 -1.0249 l0.0048048 -15.711 c0 -0.5632 0.4564 -1.02 1.0196 -1.02 s1.02 0.4568 1.02 1.02 l0 13.947 l2.3388 -1.352 c0.15359 -0.092384 0.3332 -0.14559 0.5252 -0.14559 c0.5632 0 1.02 0.4568 1.02 1.02 c0 0.38398 -0.21558 0.7132 -0.52596 0.89244 l-3.8716 2.2364 c-0.15559 0.089608 -0.33238 0.13723 -0.512 0.13723 z M124.89080000000001 33.2644 c-0.5632 0 -1.02 -0.4568 -1.02 -1.02 l0 -11.225 c0 -0.5632 0.4568 -1.02 1.02 -1.02 s1.02 0.4568 1.02 1.02 l0 11.225 c0 0.5632 -0.4568 1.02 -1.02 1.02 z M121.00120000000001 19.796 l0.0020312 0.0007422 c-0.6728 0 -1.0208 -0.5924 -1.0208 -1.0252 l0.0048048 -4.2644 c0.00078124 -0.5624 0.21438 -0.934 0.70116 -1.2156 l3.6772 -2.1256 c0.15359 -0.092384 0.3332 -0.14559 0.5252 -0.14559 c0.5632 0 1.02 0.4568 1.02 1.02 c0 0.38398 -0.21238 0.7184 -0.52596 0.8924 l-3.358 1.9408 l0 2.1336 l2.3388 -1.352 c0.15359 -0.092384 0.3332 -0.14559 0.5252 -0.14559 c0.5632 0 1.02 0.4568 1.02 1.02 c0 0.38398 -0.21558 0.7132 -0.52596 0.8928 l-3.8716 2.2364 c-0.15559 0.089608 -0.33238 0.13723 -0.512 0.13723 z M133.864 21.02 c0 0.38398 -0.21199 0.7188 -0.5256 0.89276 l-3.358 1.9408 l0 12.882 c0 0.5632 -0.4568 1.02 -1.02 1.02 s-1.02 -0.4568 -1.02 -1.02 l0 -13.248 c0 -0.5624 0.21442 -0.934 0.7012 -1.2156 l3.6772 -2.1256 c0.15359 -0.092384 0.3332 -0.14559 0.5252 -0.14559 c0.5632 0 1.02 0.4568 1.02 1.02 z M144.815 22.271 l0.0048828 0.00125 c0.4872 0.2816 0.7016 0.6532 0.7016 1.2156 l0 13.027 c0 0.5624 -0.21442 0.934 -0.7016 1.2152 l-3.6964 2.1348 c-0.15559 0.089608 -0.33238 0.13723 -0.512 0.13723 c-0.6728 0 -1.0208 -0.5924 -1.0208 -1.0252 l0.0048048 -11.698 l-5.7276 3.3108 l0 6.6236 l1.844 -1.066 l0 -3.9016 c0 -0.5632 0.4568 -1.02 1.02 -1.02 s1.02 0.4568 1.02 1.02 l0 4.2684 c0 0.5624 -0.21442 0.934 -0.7016 1.2152 l-3.6964 2.1348 c-0.15559 0.089608 -0.33238 0.13723 -0.512 0.13723 c-0.6728 0 -1.0208 -0.5924 -1.0208 -1.0252 l0.0048048 -8.7544 c0 -0.5624 0.21398 -0.934 0.7008 -1.2156 l7.5708 -4.378 c0.15559 -0.089608 0.33238 -0.13723 0.512 -0.13723 c0.5504 0 1.0184 0.452 1.0184 1.0196 l0.004414 11.702 l1.844 -1.066 l0 -12.293 l-2.864 -1.6552 l-7.2428 4.1864 c-0.15359 0.092384 -0.3332 0.14559 -0.5252 0.14559 c-0.5632 0 -1.02 -0.4568 -1.02 -1.02 c0 -0.38398 0.21238 -0.7184 0.52596 -0.8924 l7.56 -4.37 c0.24359 -0.14078 0.4728 -0.21117 0.70204 -0.21117 s0.45844 0.070392 0.70204 0.21117 z M148.5592 40 c-0.6728 0 -1.0188 -0.59208 -1.0188 -1.0249 l0.0048048 -15.711 c0 -0.5632 0.4564 -1.02 1.0196 -1.02 s1.02 0.4568 1.02 1.02 l0 13.947 l2.3388 -1.352 c0.15359 -0.092384 0.3332 -0.14559 0.5252 -0.14559 c0.5632 0 1.02 0.4568 1.02 1.02 c0 0.38398 -0.21558 0.7132 -0.52596 0.89244 l-3.8716 2.2364 c-0.15559 0.089608 -0.33238 0.13723 -0.512 0.13723 z M152.45080000000002 33.2644 c-0.5632 0 -1.02 -0.4568 -1.02 -1.02 l0 -11.225 c0 -0.5632 0.4568 -1.02 1.02 -1.02 s1.02 0.4568 1.02 1.02 l0 11.225 c0 0.5632 -0.4568 1.02 -1.02 1.02 z M148.5612 19.796 l0.0020312 0.0007422 c-0.6728 0 -1.0208 -0.5924 -1.0208 -1.0252 l0.0048048 -4.2644 c0.00078124 -0.5624 0.21438 -0.934 0.70116 -1.2156 l3.6772 -2.1256 c0.15359 -0.092384 0.3332 -0.14559 0.5252 -0.14559 c0.5632 0 1.02 0.4568 1.02 1.02 c0 0.38398 -0.21238 0.7184 -0.52596 0.8924 l-3.358 1.9408 l0 2.1336 l2.3388 -1.352 c0.15359 -0.092384 0.3332 -0.14559 0.5252 -0.14559 c0.5632 0 1.02 0.4568 1.02 1.02 c0 0.38398 -0.21558 0.7132 -0.52596 0.8928 l-3.8716 2.2364 c-0.15559 0.089608 -0.33238 0.13723 -0.512 0.13723 z"/></g>
			</g>
		</svg>
	