<svg width="66" height="28" viewBox="0 0 66 28" fill="none" xmlns="http://www.w3.org/2000/svg">
    <path fill-rule="evenodd" clip-rule="evenodd" d="M0 0V28H4.6832L4.66983 23.4407V16.2809H14.1164V11.7217H4.66983V4.5619H26.1008V0H0ZM29.3677 0V11.7191H17.3618V16.2809H29.3677V28H34.0375V16.2809H46.0407V11.7191H34.0375V0H29.3677ZM64.4372 8.20832C64.4372 12.3685 61.6908 15.3029 57.964 15.9575L66 27.9818H60.2242L52.4901 16.2914L49.2842 16.2888L49.2949 11.7217H55.0975C58.0068 11.7217 59.7673 10.6079 59.7673 8.16919C59.7673 5.6887 58.0068 4.56191 55.0975 4.56191H37.273V0.0208867H55.0975C60.5875 0.0208867 64.4372 3.12997 64.4372 8.20832Z" fill="#212121"/>
</svg>
